<svg width="60" height="61" viewBox="0 0 60 61" fill="none" xmlns="http://www.w3.org/2000/svg">
<g clip-path="url(#clip0_3758_21364)">
<path d="M29.4975 61C27.5357 61 25.3426 59.6697 24.9466 57.1261C24.9125 56.9125 24.8843 56.6989 24.8542 56.4852L24.7657 55.8523L24.4361 55.8342C22.034 55.7032 19.6218 54.127 19.652 50.9062V50.5031H19.1716C18.5496 50.5198 17.9305 50.4126 17.3501 50.1877C16.7698 49.9629 16.2397 49.6248 15.7905 49.193C14.8377 48.2739 14.3835 47.1352 14.3835 45.7122V45.3635L14.0377 45.3131L13.8508 45.2829C13.7073 45.2554 13.5623 45.2366 13.4166 45.2265C12.2508 45.1615 11.1575 44.6387 10.3733 43.7713L10.0758 43.4548C9.02449 42.3382 7.93903 41.1853 6.93799 40.0002C6.65994 39.6513 6.49634 39.2246 6.46963 38.7788C6.4234 36.727 6.39927 34.6409 6.37314 32.6234C6.35304 30.8578 6.33093 29.0317 6.29475 27.2379C6.269 26.7031 6.05538 26.1948 5.69171 25.8028C4.44745 24.5209 3.15696 23.2471 1.91068 22.0136L0.624207 20.7398L0.50963 20.6289C0.425205 20.5463 0.34279 20.4677 0.274446 20.3891C-0.0913951 19.9537 -0.0954153 19.472 0.270426 19.1112C0.345525 19.0302 0.435857 18.9647 0.536237 18.9187C0.636618 18.8727 0.74507 18.8471 0.85537 18.8432C1.11003 18.8574 1.34927 18.9701 1.52273 19.1576C2.23632 19.8449 2.9479 20.5685 3.63536 21.2578L4.45147 22.0781C4.76103 22.3865 5.06657 22.6969 5.37411 23.0073C6.06359 23.7046 6.7812 24.4181 7.49479 25.1175C7.68484 25.2927 7.8344 25.5073 7.93301 25.7465C8.03163 25.9857 8.0769 26.2436 8.06566 26.5022C8.08576 30.5333 8.13602 34.6046 8.18225 38.0492C8.20069 38.4439 8.30862 38.8292 8.49784 39.1758L8.84358 39.8954L9.20741 39.1799C9.90693 37.8093 10.9683 36.8177 12.0899 35.7676C12.5603 35.3282 13.0447 34.8727 13.497 34.395C14.4779 33.3469 15.5895 32.8169 16.8016 32.8169C17.3994 32.8235 17.9908 32.9403 18.5464 33.1615C20.4339 33.8851 21.4249 35.3282 21.4912 37.4506C21.4943 37.5138 21.5037 37.5766 21.5194 37.638L21.5435 37.7488L21.6058 38.0653H21.9274C23.7687 38.1096 25.0893 38.7909 25.9698 40.1433C26.8502 41.4957 26.9608 43.0235 26.2512 44.7286L26.0783 45.1479L26.5145 45.2708C28.7518 45.9077 29.9719 47.3025 30.2453 49.5357L30.2855 49.8622L30.6132 49.8884C30.788 49.9025 30.9589 49.9126 31.1257 49.9226C31.4502 49.9348 31.7737 49.9658 32.0946 50.0154C33.9178 50.3358 35.1098 51.398 35.8194 53.3571C36.0897 54.1007 36.5292 54.7708 37.1028 55.3145C37.6764 55.8582 38.3684 56.2604 39.124 56.4892C39.3836 56.5739 39.655 56.6168 39.928 56.6162C40.5065 56.5961 41.0661 56.4048 41.5364 56.0664C42.0066 55.7281 42.3665 55.2577 42.5707 54.7146C42.7748 54.1716 42.8142 53.5801 42.6838 53.0146C42.5533 52.4492 42.2589 51.9351 41.8377 51.5371C40.6798 50.4306 39.4898 49.32 38.336 48.2518L36.8304 46.8409L36.6917 46.7139C36.5786 46.6147 36.4706 46.5098 36.3681 46.3995C36.2034 46.2385 36.1075 46.0196 36.1008 45.7891C36.094 45.5585 36.1769 45.3344 36.3319 45.164C36.41 45.0761 36.5057 45.0057 36.6127 44.9574C36.7197 44.9092 36.8357 44.8841 36.9531 44.8838C37.1678 44.8862 37.3746 44.9655 37.536 45.1075C38.0707 45.561 38.5953 46.0488 39.1039 46.5184C39.321 46.72 39.5361 46.9215 39.7552 47.1231L40.2135 47.5504C40.5351 47.8507 40.8688 48.155 41.2185 48.4533C41.7797 48.9315 42.4923 49.1937 43.2287 49.193C43.8323 49.1946 44.4218 49.01 44.9173 48.6643C45.4128 48.3185 45.7902 47.8284 45.9985 47.2603C46.2067 46.6921 46.2357 46.0735 46.0815 45.4884C45.9272 44.9032 45.5972 44.3797 45.1363 43.9889C44.0066 42.9812 42.8427 41.9734 41.7191 41.0059C41.3412 40.6808 40.9639 40.3556 40.5874 40.0304C40.1291 39.6273 40.0024 39.3411 40.123 38.9461C40.1675 38.7651 40.2705 38.604 40.416 38.4881C40.5615 38.3721 40.7412 38.3078 40.9271 38.3051C41.1557 38.3108 41.3757 38.3932 41.5522 38.5389C42.0507 38.9239 42.5432 39.3451 43.0176 39.7483C43.3151 40.0022 43.6206 40.2562 43.9141 40.5061C44.4924 41.0024 45.2255 41.2804 45.9865 41.2921C46.4046 41.2927 46.8175 41.1994 47.1949 41.0191C47.5723 40.8388 47.9046 40.576 48.1675 40.2501C49.2067 38.9944 48.9856 37.2389 47.6429 36.0739C46.9849 35.5042 46.3236 34.9385 45.6589 34.3769C45.1161 33.9153 44.5734 33.4558 44.0347 32.9902C43.703 32.706 43.5201 32.4097 43.502 32.1316C43.4987 32.0231 43.5173 31.915 43.5567 31.8139C43.5961 31.7127 43.6554 31.6206 43.7312 31.543C43.8007 31.4536 43.8889 31.3806 43.9897 31.3291C44.0904 31.2775 44.2011 31.2487 44.3141 31.2447C44.6358 31.2777 44.9365 31.4199 45.1664 31.6478C45.6006 32.0106 46.0287 32.3775 46.4589 32.7443C46.8489 33.0789 47.2408 33.4134 47.6348 33.7521C48.2482 34.299 49.0354 34.6097 49.856 34.6288C50.2677 34.6262 50.6741 34.5358 51.0484 34.3638C51.4226 34.1918 51.7562 33.9421 52.0269 33.6311C53.1848 32.3472 53.0742 30.5353 51.7616 29.2232C49.0734 26.5358 46.3819 23.8545 43.687 21.1792L39.8919 17.4222L38.9531 16.4911C37.93 15.4833 36.8727 14.4251 35.8495 13.3751C35.6613 13.1655 35.4304 12.9991 35.1723 12.8871C34.9142 12.7751 34.6351 12.7202 34.354 12.7261H34.3158C33.4333 12.7402 32.2695 12.7543 31.1157 12.7543C29.9619 12.7543 28.9669 12.7402 28.0141 12.714C27.6032 12.6876 27.2125 12.526 26.9025 12.2544C25.0069 10.4142 23.1154 8.50554 21.2842 6.65125L20.2409 5.59914C19.9918 5.3809 19.838 5.0733 19.8128 4.74254C19.8147 4.63619 19.8382 4.53133 19.8817 4.43432C19.9252 4.33732 19.988 4.25018 20.0661 4.17819C20.138 4.09871 20.2249 4.03441 20.3219 3.98907C20.4189 3.94373 20.524 3.91826 20.6309 3.91416C20.9621 3.94851 21.2673 4.10948 21.4832 4.36362C22.7804 5.66162 24.0749 6.96164 25.3667 8.26367L27.4975 10.4001C27.9626 10.8237 28.5741 11.0486 29.202 11.027C29.8211 11.0495 30.4243 10.8281 30.8825 10.4102L40.6617 0.60466C40.8036 0.449563 40.9575 0.30601 41.122 0.175352C41.2728 0.0633613 41.455 0.00199118 41.6427 7.11695e-07C41.7537 -0.00014829 41.8635 0.0231007 41.9649 0.0682397C42.0664 0.113379 42.1573 0.179399 42.2316 0.26202C42.5573 0.618768 42.5914 0.965439 42.3362 1.35242C42.206 1.5342 42.0578 1.70234 41.8939 1.85429L41.8397 1.90871L37.6646 6.09899L34.1831 9.59392C34.0484 9.72695 33.9218 9.86803 33.7992 9.99703L33.6283 10.1865L33.2886 10.5553L33.7208 10.8073L33.7791 10.8456C33.8675 10.9155 33.9761 10.9551 34.0886 10.9584H34.1248H34.1691C34.3478 10.923 34.5296 10.9047 34.7118 10.904C35.7972 10.904 36.5852 11.6135 37.4315 12.4701C40.3823 15.4611 43.4176 18.4663 46.3504 21.3646L49.6027 24.5895C49.6992 24.6862 49.8037 24.7789 49.9123 24.8857L50.3626 25.309L50.6379 25.053L50.839 24.8777C50.9797 24.7487 51.1164 24.6237 51.241 24.4927L54.2722 21.4694L58.1116 17.6278L58.2141 17.523C58.3439 17.3786 58.4903 17.25 58.6503 17.1401C58.7992 17.0433 58.9715 16.989 59.1488 16.9829C59.2606 16.9868 59.3704 17.0141 59.4712 17.063C59.5719 17.112 59.6613 17.1815 59.7337 17.267C59.887 17.3994 59.9829 17.5865 60.0009 17.7886C60.0189 17.9907 59.9577 18.1918 59.8302 18.3494C59.7163 18.507 59.5863 18.6522 59.4423 18.7827L59.3277 18.8976L58.6563 19.5728C56.6462 21.5883 54.5677 23.6784 52.5154 25.7202C52.3957 25.8179 52.2639 25.8999 52.1234 25.9641C52.0169 26.0205 51.9023 26.0809 51.7797 26.1535L51.3154 26.4296L51.7174 26.7965C51.9284 26.998 52.1194 27.1532 52.2762 27.3024C52.5777 27.5745 52.8169 27.7881 53.036 28.0118C54.3486 29.3461 54.8672 31.0694 54.4572 32.7382C54.0471 34.4071 52.7948 35.691 51.0159 36.2614L50.7927 36.3259L50.2882 36.473L50.3746 36.8439C51.042 39.7341 50.049 41.7456 47.3434 42.9892L46.9413 43.1787L47.1745 43.5657C48.071 45.0531 48.2318 46.4962 47.667 47.9756C47.1162 49.4188 46.0066 50.4084 44.3724 50.9183L43.9985 51.0352L44.1051 51.4121C44.9252 54.3185 44.4166 56.2756 42.497 57.5716C41.782 58.0946 40.9235 58.3839 40.0386 58.4C38.8989 58.4 37.7028 57.8921 36.3762 56.846L36.1128 56.6444L35.8616 56.8661C35.4595 57.2209 35.0736 57.5736 34.6897 57.9223C33.8615 58.6761 33.0816 59.3876 32.2454 60.0487C31.4635 60.669 30.4946 61.0045 29.4975 61ZM30.8343 51.6983C30.7659 51.7346 30.6795 51.7749 30.579 51.8213C30.1733 51.9935 29.7915 52.2178 29.4433 52.4884C29.0056 52.8678 28.5895 53.2715 28.197 53.6977C27.9739 53.9336 27.7407 54.1774 27.5075 54.4052C26.3839 55.4956 26.3015 57.1181 27.3065 58.2649C27.5735 58.5673 27.9015 58.8094 28.2689 58.9751C28.6362 59.1409 29.0344 59.2265 29.4372 59.2263C30.0751 59.2294 30.6929 59.0027 31.178 58.5874C32.0043 57.8719 32.7845 57.1044 33.5138 56.2897C34.2856 55.4311 34.4203 54.3508 33.8937 53.2483C33.3972 52.2123 32.4866 51.7024 31.0373 51.6459H30.9267L30.8343 51.6983ZM25.6683 46.9921C24.9803 46.9955 24.3174 47.2514 23.8049 47.7116C23.2239 48.2164 22.6729 48.7548 22.1546 49.324C21.7767 49.7188 21.528 50.2198 21.4418 50.76C21.3556 51.3003 21.436 51.8541 21.6721 52.3473C22.1124 53.3551 22.9345 53.9456 24.2592 54.1774L24.3999 54.2016L24.5245 54.1331C24.6813 54.0444 24.8421 53.9618 25.0029 53.8791C25.4002 53.6886 25.7797 53.4626 26.1366 53.2039C26.407 52.9843 26.6591 52.743 26.8904 52.4824C27.0908 52.2548 27.3093 52.0438 27.5437 51.8515C27.8155 51.6365 28.0388 51.3662 28.1989 51.0584C28.359 50.7506 28.4522 50.4123 28.4724 50.0658C28.507 49.687 28.4644 49.3052 28.3472 48.9435C28.2301 48.5817 28.0408 48.2477 27.7909 47.9615C27.5232 47.6615 27.1964 47.4205 26.831 47.2536C26.4656 47.0867 26.0697 46.9977 25.6683 46.9921ZM22.2169 39.8228C21.4407 39.8301 20.6982 40.142 20.1485 40.6915L19.8731 40.9576C18.8942 41.9069 17.8891 42.8905 16.9564 43.9224C16.6701 44.2784 16.4421 44.6777 16.281 45.1055C16.2026 45.2809 16.1303 45.4482 16.0478 45.6054L15.9855 45.7243L16.0076 45.8553C16.2087 47.1372 16.8117 47.9837 17.8288 48.4433C18.2025 48.617 18.6089 48.7091 19.0208 48.7133C19.7327 48.7025 20.4122 48.4132 20.9143 47.9071C21.9717 46.8994 23.0692 45.8009 24.1727 44.648C25.2763 43.4951 25.2944 41.7456 24.1727 40.629C23.9161 40.3717 23.611 40.168 23.2753 40.0296C22.9396 39.8912 22.5799 39.8209 22.2169 39.8228ZM16.9122 34.5724C16.2795 34.5663 15.6676 34.7986 15.1976 35.2234C13.9613 36.3601 12.7231 37.6037 11.517 38.9239C10.7994 39.71 10.6828 40.7742 11.1954 41.8424C11.6758 42.8502 12.5 43.4085 13.7141 43.5778L13.8327 43.5939L13.9412 43.5435C14.088 43.475 14.2448 43.4145 14.4096 43.3419C14.8212 43.2131 15.2051 43.008 15.5413 42.7373C16.5926 41.7718 17.6981 40.6714 19.0228 39.2686C19.5074 38.7456 19.7715 38.055 19.7599 37.3412C19.7483 36.6275 19.4618 35.9459 18.9605 35.4391C18.694 35.1649 18.3755 34.947 18.0237 34.7982C17.6719 34.6493 17.294 34.5726 16.9122 34.5724Z" fill="#E5A338"/>
</g>
<defs>
<clipPath id="clip0_3758_21364">
<rect width="60" height="61" fill="white"/>
</clipPath>
</defs>
</svg>
