<svg width="59" height="48" viewBox="0 0 59 48" fill="none" xmlns="http://www.w3.org/2000/svg">
<g clip-path="url(#clip0_3758_21379)">
<path d="M0 31.8406C0.475856 30.5808 1.42295 30.1392 2.74734 30.171C4.74932 30.2226 6.74206 30.1938 8.73943 30.1801C9.5279 30.1801 10.2055 30.3683 10.763 30.9572C10.8615 31.0604 11.1757 31.065 11.3343 30.9937C12.7342 30.3744 14.1217 29.7294 15.5092 29.0859C18.449 27.7199 21.4505 27.6 24.5274 28.5971C27.6043 29.5943 30.732 30.5702 33.832 31.5598C36.1127 32.2883 36.912 33.8091 36.2205 36.1752C36.5454 36.11 36.8365 36.0675 37.1229 35.9931C40.0289 35.2342 42.6453 33.844 45.214 32.3611C47.6488 30.9587 50.0481 29.4956 52.4797 28.0872C53.918 27.2555 55.4057 27.1948 56.844 28.0872C58.2824 28.9796 59.0277 30.3228 59 31.9923C58.9723 33.6618 58.076 34.8396 56.613 35.6106C53.0618 37.485 49.5291 39.405 45.944 41.1989C42.7228 42.7942 39.3751 44.1282 35.9341 45.1875C31.1894 46.6689 26.4139 46.9071 21.566 45.7704C18.1626 44.972 14.8178 45.2801 11.5345 46.3911C11.3122 46.4819 11.1262 46.6418 11.0048 46.8464C10.552 47.5901 9.91752 48.006 9.03049 48.0075C6.7821 48.0075 4.53475 48.0075 2.28842 48.0075C1.07491 48.0075 0.391157 47.3336 0.00615995 46.2773L0 31.8406ZM11.2804 44.7004C11.5884 44.6154 11.7824 44.5622 11.9826 44.5015C15.1162 43.5492 18.4411 43.3817 21.6568 44.0143C23.347 44.3608 25.0554 44.6142 26.7742 44.7732C29.6016 44.9993 32.3582 44.4803 35.0671 43.7032C39.841 42.3372 44.3239 40.2716 48.7098 38.0011C51.1045 36.7611 53.4591 35.4482 55.8184 34.1445C57.3892 33.2763 57.805 31.8876 56.9641 30.4776C56.1233 29.0676 54.688 28.7899 53.1419 29.6854C52.9771 29.7825 52.8123 29.8812 52.6476 29.9753C49.3458 31.8648 46.0826 33.8258 42.7316 35.6243C39.4129 37.4061 35.8524 38.4078 32.0179 38.2044C29.0719 38.0527 26.2706 37.2786 23.5479 36.1934C22.376 35.726 21.2272 35.1993 20.0768 34.6757C19.5917 34.4556 19.4393 34.0246 19.6348 33.5996C19.8304 33.1746 20.2739 33.0244 20.7529 33.205C20.9669 33.2854 21.1671 33.4038 21.3812 33.4873C23.1245 34.1733 24.8462 34.9246 26.6171 35.5196C28.7146 36.2207 30.8829 36.6412 33.119 36.5197C34.0568 36.4681 34.6913 35.8747 34.8037 35.0339C34.9254 34.1126 34.5065 33.4721 33.5163 33.1595C30.1653 32.0991 26.806 31.0458 23.4386 29.9995C21.1717 29.3014 18.9249 29.3833 16.7458 30.335C15.0626 31.0695 13.4102 31.8724 11.7285 32.6116C11.3605 32.7724 11.2665 32.9667 11.2665 33.334C11.2789 36.9311 11.2665 40.5281 11.2665 44.1251L11.2804 44.7004ZM1.70323 39.0741C1.70323 41.2308 1.71247 43.386 1.70323 45.5427C1.70323 46.0648 1.8911 46.3016 2.44088 46.3016C4.5907 46.2894 6.74001 46.2894 8.88881 46.3016C9.36158 46.3016 9.6203 46.1255 9.58796 45.6322C9.58796 45.5958 9.5972 45.5579 9.5972 45.5199C9.5972 41.2263 9.5972 36.9326 9.58796 32.6404C9.58796 31.8815 9.49402 31.8345 8.74867 31.8345C6.67585 31.8345 4.60354 31.8345 2.53174 31.8345C1.80025 31.8345 1.71093 31.9255 1.70939 32.6632C1.69912 34.8001 1.69707 36.9371 1.70323 39.0741Z" fill="#E5A338"/>
<path d="M23.2087 19.5788C22.5511 19.5788 21.9582 19.5788 21.3607 19.5788C19.0307 19.591 17.5246 18.1324 17.5215 15.8437C17.5215 11.849 17.5215 7.85227 17.5215 3.85354C17.5261 1.39025 18.9414 0 21.4592 0C27.8358 0 34.2134 0 40.592 0C41.918 0 43.2424 0 44.5683 0C46.9691 0.0151774 48.4075 1.42819 48.409 3.78372C48.409 7.79865 48.409 11.8121 48.409 15.8239C48.409 18.1628 46.9476 19.6183 44.559 19.6183C40.6783 19.6274 36.7975 19.6183 32.9183 19.6335C32.4829 19.6425 32.0548 19.7461 31.6647 19.937C28.9852 21.2499 26.3225 22.5946 23.6568 23.9287C23.5197 23.9985 23.3796 24.1214 23.2441 24.1184C22.9022 24.1093 22.4741 24.1487 22.2508 23.9666C22.0521 23.8042 21.9613 23.3352 22.0383 23.056C22.3108 22.0922 22.6774 21.1542 23.0054 20.2072C23.0747 20.0144 23.1332 19.8186 23.2087 19.5788ZM24.2327 21.6915C24.5515 21.5489 24.7409 21.4714 24.9211 21.388C26.9416 20.3832 28.9667 19.3876 30.9748 18.3616C31.5173 18.0836 32.1222 17.9448 32.7335 17.9579C36.6697 17.9746 40.6074 17.967 44.5436 17.9579C45.9296 17.9579 46.6781 17.2233 46.6796 15.8558C46.6796 11.8247 46.6796 7.79359 46.6796 3.76247C46.6796 2.36008 45.9373 1.62398 44.5236 1.62398C36.8052 1.62398 29.0863 1.62398 21.3668 1.62398C19.9223 1.62398 19.1955 2.33125 19.1939 3.74881C19.1939 7.77993 19.1939 11.8105 19.1939 15.8406C19.1939 17.2066 19.9639 17.9533 21.3299 17.9655C22.3293 17.9655 23.3319 17.9548 24.3267 17.9655C25.0043 17.9791 25.3231 18.4208 25.1521 19.0749C25.0936 19.2935 24.9981 19.5029 24.9288 19.7169C24.7071 20.3377 24.4853 20.9448 24.2327 21.6915Z" fill="#E5A338"/>
<path d="M8.29588 35.9854C8.28252 36.6733 7.99324 37.3279 7.49135 37.806C6.98945 38.2842 6.31582 38.5469 5.61785 38.5367C5.26806 38.538 4.92154 38.4705 4.59853 38.3382C4.27553 38.2059 3.98251 38.0115 3.73662 37.7663C3.49073 37.5212 3.29689 37.2302 3.16644 36.9103C3.03599 36.5904 2.97154 36.2482 2.97687 35.9035C2.98219 35.5588 3.05718 35.2186 3.19744 34.9028C3.33771 34.587 3.54044 34.3019 3.79379 34.0642C4.04713 33.8266 4.34601 33.641 4.67296 33.5185C4.9999 33.396 5.34834 33.3389 5.69792 33.3506C6.39613 33.363 7.06105 33.6469 7.54771 34.1405C8.03438 34.6341 8.30331 35.2972 8.29588 35.9854ZM5.65942 35.008C5.53546 35.0082 5.41274 35.0325 5.29828 35.0794C5.18383 35.1263 5.07987 35.195 4.99236 35.2816C4.90484 35.3681 4.83548 35.4708 4.78822 35.5837C4.74097 35.6967 4.71675 35.8177 4.71695 35.9399C4.71729 36.0665 4.74344 36.1917 4.79387 36.3081C4.8443 36.4245 4.91796 36.5297 5.01048 36.6175C5.10301 36.7053 5.2125 36.7739 5.33245 36.8191C5.4524 36.8644 5.58035 36.8854 5.7087 36.8809C5.95887 36.8673 6.19419 36.7595 6.36612 36.5799C6.53805 36.4003 6.63347 36.1625 6.6327 35.9156C6.62077 35.6697 6.5128 35.4379 6.33138 35.2688C6.14997 35.0996 5.90917 35.0061 5.65942 35.008Z" fill="#E5A338"/>
<path d="M25.3112 10.3767C24.4196 10.3767 24.0115 10.1263 23.9945 9.55714C23.9791 8.9637 24.4103 8.67837 25.3235 8.67837C25.5151 8.67151 25.7068 8.67455 25.898 8.68747C26.121 8.69762 26.3316 8.79206 26.4859 8.95118C26.6402 9.1103 26.7263 9.32187 26.7265 9.54196C26.7229 9.76108 26.6334 9.97031 26.4766 10.1257C26.3198 10.2811 26.108 10.3705 25.8856 10.3752C25.6947 10.3904 25.5022 10.3767 25.3112 10.3767Z" fill="#E5A338"/>
<path d="M32.9236 10.3796C32.0289 10.3796 31.6224 10.1307 31.6023 9.56306C31.5808 8.96659 32.012 8.67974 32.9252 8.67822C33.0977 8.67822 33.2701 8.67822 33.4411 8.67822C33.9755 8.71768 34.3343 9.06525 34.3343 9.53119C34.3343 9.99714 33.9755 10.3417 33.4411 10.3735C33.264 10.3887 33.0961 10.3796 32.9236 10.3796Z" fill="#E5A338"/>
<path d="M40.547 10.3753C40.3562 10.3859 40.1649 10.3859 39.9741 10.3753C39.4875 10.3222 39.2041 10.046 39.1918 9.5618C39.1795 9.07764 39.4598 8.77561 39.931 8.7058C40.2731 8.66781 40.618 8.66171 40.9612 8.68758C41.5403 8.70883 41.8976 9.04729 41.8852 9.54662C41.8729 10.046 41.5326 10.3617 40.9412 10.3859C40.8072 10.3859 40.6733 10.3859 40.5393 10.3859L40.547 10.3753Z" fill="#E5A338"/>
</g>
<defs>
<clipPath id="clip0_3758_21379">
<rect width="59" height="48" fill="white"/>
</clipPath>
</defs>
</svg>
