<svg version="1.2" xmlns="http://www.w3.org/2000/svg" viewBox="0 0 203 158" width="203" height="158">
	<title>file</title>
	<style>
		.s0 { fill: #0655CD } 
	</style>
	<path id="Path 0" fill-rule="evenodd" class="s0" d="m58.3 1c5.1 0 8.1 0.6 12.5 2.6 3.1 1.4 7.3 3.8 9.2 5.3 1.9 1.6 5 5.1 6.8 7.9 2.9 4.8 3.4 5.1 6 4.4 1.5-0.4 5.6-0.7 9.2-0.7 3.6 0 7.7 0.3 9.3 0.7 2.5 0.7 3 0.4 6-4.4 1.7-2.8 4.8-6.3 6.7-7.9 1.9-1.5 6.1-3.9 9.3-5.3 4.2-1.9 7.4-2.6 12.2-2.6 5 0 8 0.7 12.8 2.8 3.4 1.5 8.1 4.6 10.5 6.8 2.4 2.1 5.7 6.6 7.3 9.9 1.6 3.3 3.2 8.3 3.5 11 0.4 2.8 0.1 7.4-0.6 10.5-0.7 3-2.1 7.2-3.1 9.3-1.1 2-3.7 5.6-5.9 7.9-2.2 2.4-3.9 4.3-3.8 4.4 0.2 0 2.3 0.8 4.8 1.7 2.5 0.9 7.2 3.4 10.5 5.5 3.3 2.1 7.7 5.7 9.8 8 2 2.3 4.8 6.4 6.2 9.2 1.4 2.7 2.9 7.8 3.5 11.3 0.5 3.4 1 12.8 1 35.7h-7v-18.8c0-18.5 0-18.8-2.9-24.7-1.7-3.7-4.8-7.8-8-10.8-2.8-2.6-8.6-6.4-12.8-8.5-7.1-3.4-8.4-3.7-14.8-3.4-3.9 0.2-8.8 0.4-11 0.5-2.2 0.1-5.8-0.2-8-0.6-4-0.8-4-0.7-7 3.9-1.6 2.6-4.2 5.7-8.1 8.9l7.5 3.6c4.2 2 9.9 5.4 12.6 7.6 2.8 2.1 6.6 6.4 8.6 9.4 2 3 4.4 7.9 5.3 10.9 1.2 4.2 1.6 9.8 1.6 41h-6l-0.3-19.3c-0.2-18.5-0.3-19.4-2.9-24.7-1.5-3-4.8-7.6-7.5-10.1-2.6-2.5-7.5-5.9-10.8-7.6-3.3-1.7-8.4-3.8-11.2-4.7-4-1.2-6.1-1.4-8.5-0.6-1.8 0.6-5.8 1-8.8 1-3 0-7-0.4-8.7-1-2.5-0.8-4.6-0.6-8.5 0.6-2.9 0.9-8 3-11.3 4.7-3.3 1.7-8.2 5.1-10.8 7.6-2.7 2.5-6.1 7.1-7.5 10.1-2.6 5.3-2.7 6.2-3.2 44h-6v-18c0-14.4 0.4-19.1 1.8-23.8 1-3.1 3.5-8.2 5.7-11.1 2.2-3 6.5-7.3 9.5-9.6 3-2.2 8.4-5.3 18.5-9.9l-2.5-2.1c-1.4-1.2-3.9-4.3-5.5-6.9-3-4.6-3-4.7-7-3.9-2.2 0.4-5.8 0.7-8 0.6-2.2-0.1-7.1-0.3-11-0.5-6.4-0.3-7.7 0-14.7 3.4-4.3 2.1-10.1 5.9-12.9 8.5-3.2 3-6.3 7.1-8 10.8-2.9 5.9-2.9 6.2-2.9 43.5h-7v-14.8c0-8.1 0.5-17.5 1-21 0.6-3.4 2.1-8.5 3.5-11.2 1.4-2.8 4.2-6.9 6.3-9.2 2-2.3 6.4-5.9 9.7-8 3.3-2.1 8-4.6 10.5-5.5 2.5-0.9 4.6-1.7 4.8-1.7 0.1-0.1-1.7-2.1-4-4.6-2.3-2.5-5.3-7-6.7-10-2.1-4.4-2.5-7-2.5-13.5 0-6.4 0.4-9.1 2.5-13.5 1.4-3 4.3-7.5 6.5-9.9 2.4-2.6 6.7-5.6 10.9-7.7 5.8-2.8 8.1-3.4 13.8-3.4zm-12.8 9.8c-2.2 1.1-5.4 3.5-7.2 5.4-1.8 1.8-4.2 5.5-5.4 8.3-1.4 3.3-2.2 7-2.2 11 0 3.8 0.8 7.7 2 10.5 1.1 2.5 3.5 6.2 5.4 8.3 1.9 2.1 5.7 5 8.4 6.3 3.6 1.8 6.6 2.4 11 2.4 3.3 0 7-0.4 8.2-0.8 2-0.6 2.2-1.5 2.5-8.7 0.3-6.2 1-9.3 3.1-13.8 1.6-3.3 4.9-7.8 8-10.7l5.2-5c-4.6-6.4-7.4-9.3-9-10.6-1.6-1.2-4.6-2.9-6.5-3.7-1.9-0.8-5.3-1.7-7.5-1.9-2.2-0.3-5.8-0.2-8 0.2-2.2 0.4-5.8 1.7-8 2.8zm86 0.6c-2.2 1.3-5.4 4.1-7.1 6.2-1.7 2.1-3.4 4.5-3.7 5.1-0.4 0.8 1.3 3.3 4.3 6.3 2.8 2.7 6.2 7.6 7.7 10.7 2.1 4.5 2.8 7.6 3.1 13.8 0.3 7.2 0.5 8.1 2.5 8.7 1.2 0.4 4.9 0.8 8.2 0.8 4.4 0 7.4-0.6 11-2.4 2.8-1.3 6.5-4.2 8.4-6.3 1.9-2.1 4.3-5.8 5.4-8.3 1.3-2.8 2-6.7 2-10.5 0-3.9-0.8-7.8-2.2-11-1.1-2.8-3.8-6.7-5.8-8.7-2.1-2-5.8-4.6-8.3-5.6-2.5-1.1-6.3-2.2-8.5-2.5-2.2-0.2-6 0-8.5 0.4-2.5 0.5-6.3 2-8.5 3.3zm-43.7 18.9c-2.7 1.5-5.9 4.2-7.2 5.9-1.3 1.8-3.1 4.9-4.1 6.8-1 1.9-2 5.7-2.3 8.5-0.3 3.2 0.2 7.1 1.3 11 1.4 4.7 2.9 7.1 6.9 11.1 3.4 3.3 6.8 5.6 10.1 6.7 2.8 1 7 1.7 9.5 1.7 2.5 0 6.8-0.7 9.5-1.7 3.3-1.1 6.7-3.4 10.1-6.7 4-4 5.5-6.4 6.9-11.1 1.1-3.8 1.6-7.8 1.3-11-0.3-2.8-1.8-7.4-3.4-10.4-1.6-2.9-4.3-6.5-5.9-7.9-1.6-1.3-4.7-3.3-6.7-4.3-2.1-1.1-6.4-2.1-9.5-2.4-3.2-0.2-7.2-0.1-8.8 0.3-1.6 0.5-5.1 2-7.7 3.5zm263.7 403.7c2.5 0 4.9 0.6 6.3 1.7 2 1.5 2.5 3.1 3.7 16.3h-3.2c-1.8 0-3.3-0.5-3.3-1 0-0.6-0.8-0.6-2.2 0.1-1.3 0.6-3.5 0.8-5 0.5-1.6-0.3-3.3-1.5-3.8-2.6-0.5-1.1-0.7-3.2-0.2-4.6 0.4-1.5 1.7-3.1 3-3.5 1.2-0.5 3.7-0.9 5.5-0.9 2.2 0 2.9-0.3 2.2-1.1-0.5-0.5-2.9-0.9-5.2-0.7-3.4 0.2-4.3 0-4.5-1.4-0.1-0.9 0.5-1.9 1.2-2.1 0.8-0.3 3.3-0.6 5.5-0.7zm-2.7 12.1c0.1 1.3 1 1.9 2.7 1.9 1.4 0 2.7-0.7 3-1.5 0.3-0.8 0.5-2 0.5-2.5 0-0.5-0.8-1-1.7-0.9-1 0-2.5 0.3-3.3 0.6-0.7 0.2-1.3 1.3-1.2 2.4zm-195.8 18.9v10.2c0 7.5-0.4 10.9-1.5 12.5q-1.5 2.3-4.5 2.3c-2.3 0-3-0.4-3-2 0-1.1 0.7-2 1.5-2 0.8 0 1.7-0.7 2-1.5 0.3-0.8 0.5-5.5 0.5-10.5 0-8.9 0-9 5-9zm-135-358h6v31h-6zm162 0h6v31h-6zm-112 19h6v31h-6zm62 0h6v31h-6zm-38.6 300c1.8 0.1 1.7 0.4-1.4 3.2-2.5 2.3-3.6 2.8-3.8 1.7-0.2-0.8 0.4-2.2 1.4-3.2 0.9-0.9 2.6-1.7 3.8-1.7zm264.9 0c2 0 1.9 0.3-1 3.2-1.8 1.8-3.5 3-3.8 2.5-0.3-0.4 0.2-1.8 1.1-3.2 0.9-1.4 2.5-2.5 3.7-2.5zm-398.3 2v24h-3c-1.6 0-3-0.5-3-1 0-0.6-1.1-0.5-2.9 0.2-2.4 1-3.5 1-5.5 0-1.7-0.7-3-2.6-3.7-5-0.9-3-0.8-4.4 0.5-7.5 1.1-2.6 2.4-3.9 4.4-4.3 1.5-0.3 3.7-0.1 5 0.5 2.1 1 2.2 0.9 2.2-2.9 0-3.8 0.2-4 6-4zm-13.2 15c0 1.4 0.8 3.2 1.7 4 1.3 1.1 2.1 1.2 3.3 0.4 1-0.6 1.8-2.4 2-4 0.1-1.6-0.3-3.5-1-4.2-0.7-0.7-1.8-1.3-2.3-1.2-0.6 0-1.7 0.5-2.5 1.2-0.8 0.7-1.3 2.3-1.2 3.8zm29.2-15h2.5c2.3 0 2.5 0.4 2.5 4 0 3.8 0.1 3.9 2.3 2.9 1.2-0.6 3.4-0.8 5-0.5 1.7 0.4 3.3 1.7 4.2 3.6 0.8 1.6 1.5 3.9 1.5 5 0 1.1-0.7 3.4-1.5 5-0.9 1.9-2.5 3.2-4.2 3.6-1.6 0.3-3.8 0.1-5-0.5-1.5-0.7-2.3-0.7-2.3-0.1 0 0.5-1.1 1-5 1zm4.8 15c0 1.4 0.8 3.2 1.7 4 1.3 1.1 2.1 1.2 3.3 0.4 1-0.6 1.8-2.4 2-4 0.1-1.6-0.3-3.5-1-4.2-0.7-0.7-1.8-1.3-2.3-1.2-0.6 0-1.7 0.5-2.5 1.2-0.8 0.7-1.3 2.3-1.2 3.8zm249.2-15h5v24h-5zm39 0v24h-3c-1.6 0-3-0.5-3-1 0-0.6-1.1-0.5-2.9 0.2-2.4 1-3.5 1-5.5 0-1.7-0.7-3-2.6-3.7-5-0.9-3-0.8-4.4 0.5-7.5 1.1-2.6 2.4-3.9 4.4-4.3 1.5-0.3 3.7-0.1 5 0.5 2.1 1 2.2 0.9 2.2-2.9 0-3.8 0.2-4 6-4zm-13.2 15c0 1.4 0.8 3.2 1.7 4 1.3 1.1 2.1 1.2 3.3 0.4 1-0.6 1.8-2.4 2-4 0.1-1.6-0.3-3.5-1-4.2-0.7-0.7-1.8-1.3-2.3-1.2-0.6 0-1.7 0.5-2.5 1.2-0.8 0.7-1.3 2.3-1.2 3.8zm-418-13.9c1.7-0.1 4.1 0.4 5.2 0.9 1.1 0.5 2 1.9 2 3 0 1.6-0.4 1.9-2.2 1.3-1.3-0.4-3.6-0.7-5.3-0.6-1.7 0-3.6 0.9-4.3 1.9-0.7 1.1-1.2 3.3-1.2 4.9 0 1.6 0.5 3.8 1.2 4.9 0.7 1 2.6 1.9 4.3 1.9 1.7 0.1 4-0.2 5.3-0.6 1.8-0.6 2.2-0.3 2.2 1.3 0 1.1-1 2.5-2.2 3.1-1.3 0.7-4.3 0.9-6.8 0.6-3.4-0.4-5.2-1.3-7.2-3.6-2.1-2.3-2.8-4.2-2.8-7.4-0.1-2.7 0.7-5.2 2-7 1.2-1.6 3.1-3.3 4.3-3.7 1.2-0.5 3.7-0.9 5.5-0.9zm72.7 0.1c1.2 0.2 2.1 1.2 2.3 2.5 0.1 1.7 0.8 2.3 2.7 2.3 1.8 0 2.5 0.5 2.5 2 0 1.5-0.7 2-2.5 2-2.3 0-2.5 0.3-2.5 5 0 4.7 0.2 5 2.5 5 1.8 0 2.5 0.5 2.5 2 0 1.7-0.7 2-4 2-2.2 0-4.7-0.7-5.5-1.5-1-1-1.5-3.4-1.5-7 0-4.2-0.3-5.5-1.5-5.5-0.8 0-1.5-0.9-1.5-2 0-1.1 0.7-2 1.5-2 0.8 0 1.4-0.8 1.3-1.8-0.1-1 0.3-2.2 0.7-2.6 0.5-0.4 1.8-0.6 3-0.4zm118.5-0.2h6v11.5c0 7.2-0.5 12.4-1.2 14-0.7 1.4-2.3 2.9-3.5 3.5-1.3 0.5-3.2 1-4.3 1q-2 0-2-2c0-1.1 0.8-2.3 1.8-2.7 0.9-0.3 2-1.1 2.4-1.7 0.4-0.6 0.8-6.2 0.8-12.4zm84 0h3.7c3.6 0 3.9 0.3 5.8 5.3 1.1 2.9 2.4 5.2 2.9 5.2 0.4 0 1.8-2.3 2.9-5.2 2.1-5 2.3-5.2 9.7-5.3v23h-2.5c-2.4 0-2.5-0.2-2.5-6.5 0-3.6-0.5-6.5-1-6.5-0.6 0-1.9 2.1-3 4.5-1.1 2.5-2.7 4.5-3.5 4.5-0.8 0-2.4-2-3.5-4.5-1.1-2.4-2.5-4.5-3-4.5-0.6 0-1 2.9-1 6.5 0 6.3-0.1 6.5-5 6.5zm193 0h6v18h5c4.7 0 5 0.2 5 2.5 0 2.5-0.1 2.5-16 2.5zm-453.5 5c1.5 0 2.5 0.6 2.5 1.5 0 1.4 0.2 1.4 1.6 0 0.8-0.8 2.4-1.5 3.5-1.5 1.3 0 1.9 0.7 1.9 2.5 0 2-0.5 2.5-2.3 2.5-1.3 0-2.9 0.6-3.5 1.3-0.7 0.7-1.2 3.6-1.2 6.5 0 4.9-0.2 5.2-2.5 5.2-2.5 0-2.5 0-2.5-9 0-8.9 0-9 2.5-9zm20 0c2.2 0 4.4 0.9 5.9 2.3 1.3 1.2 2.7 3.5 3.6 7.7h-6.5c-3.6 0-6.5 0.4-6.6 0.8 0 0.4 0.7 1.4 1.7 2.2 1.2 1.2 2.7 1.4 6 0.8 3.6-0.6 4.4-0.5 4.4 0.7 0 0.9-1.1 2-2.5 2.5-1.4 0.6-4.1 1-6 1-2.3 0-4.5-0.8-6.3-2.4-2.1-1.9-2.7-3.2-2.7-6.6 0-3.3 0.5-4.6 2.8-6.5 1.8-1.6 4.1-2.5 6.2-2.5zm-3.7 6.2c0.1 0.5 1.8 0.8 3.7 0.8 2.3 0 3.4-0.4 3.2-1.2-0.2-0.7-1.5-1.4-2.8-1.5-1.4-0.2-2.9 0-3.4 0.4-0.5 0.4-0.8 1.1-0.7 1.5zm23.7-6.1c2.4-0.1 4.9 0.6 6.3 1.7 2 1.4 2.5 3 3.7 16.3h-3.3c-1.8 0-3.2-0.5-3.2-1.1 0-0.6-0.8-0.5-2.3 0.2-1.2 0.6-3.5 0.8-5 0.5-1.5-0.4-3.2-1.5-3.7-2.7-0.6-1.1-0.7-3.1-0.3-4.6 0.4-1.5 1.8-3 3-3.5 1.3-0.5 3.7-0.8 5.5-0.8 2.3 0 3-0.3 2.3-1.1-0.6-0.6-2.9-0.9-5.3-0.8-3.3 0.3-4.3 0-4.4-1.3-0.1-0.9 0.4-1.9 1.2-2.2 0.8-0.3 3.3-0.5 5.5-0.6zm-2.7 12c0.1 1.4 1 1.9 2.7 1.9 1.4 0 2.7-0.6 3-1.5 0.3-0.8 0.5-1.9 0.5-2.5 0-0.5-0.8-0.9-1.8-0.9-0.9 0.1-2.4 0.3-3.2 0.6-0.8 0.3-1.3 1.4-1.2 2.4zm39.7-12.1c2.2 0 4.4 0.9 5.9 2.3 1.3 1.2 2.7 3.5 3.6 7.7h-6.5c-3.6 0-6.5 0.4-6.6 0.8 0 0.4 0.7 1.4 1.7 2.2 1.2 1.2 2.7 1.4 6 0.8 3.6-0.6 4.4-0.5 4.4 0.7 0 0.9-1.1 2-2.5 2.5-1.4 0.6-4.1 1-6 1-2.3 0-4.5-0.8-6.3-2.4-2.1-1.9-2.7-3.2-2.7-6.6 0-3.3 0.5-4.6 2.8-6.5 1.8-1.6 4.1-2.5 6.2-2.5zm-3.7 6.2c0.1 0.5 1.8 0.8 3.7 0.8 2.3 0 3.4-0.4 3.2-1.2-0.2-0.7-1.5-1.4-2.8-1.5-1.4-0.2-2.9 0-3.4 0.4-0.5 0.4-0.8 1.1-0.7 1.5zm72.7-6.2c2.1 0 2.8 0.8 4.1 4.8 1 2.6 2.1 5.2 2.5 5.7 0.4 0.6 1.5-1.5 2.3-4.7 1.5-5.4 1.8-5.8 7.6-5.8l-4.1 10.8c-2.2 5.9-4.8 11.6-5.7 12.5-1 1-3 1.8-4.5 1.8-2 0-2.7-0.5-2.7-2.1q0-1.9 2-2c1.1 0 2.2-0.4 2.5-1 0.3-0.5-1.1-4.9-3-9.7-2-4.8-3.5-9.1-3.5-9.5 0-0.4 1.1-0.8 2.5-0.8zm49.5 0c1.7 0 4.1 0.6 5.5 1.3 1.4 0.7 2.9 2.3 3.5 3.5 0.5 1.2 1 3.1 1 4.2 0 1.1-0.5 3.1-1 4.3-0.6 1.2-2.1 2.8-3.5 3.5-1.4 0.7-3.9 1.2-5.5 1.2-1.8 0-4.2-1-5.8-2.4-2.1-1.9-2.7-3.2-2.7-6.6 0-3.3 0.5-4.6 2.8-6.5 1.6-1.4 4.1-2.5 5.7-2.5zm-2.8 9.4c0.2 1.6 1 3.4 1.8 3.9 0.8 0.6 2.3 0.8 3.2 0.4 1.3-0.5 1.8-1.8 1.8-4.7q0-4-1.5-4.5c-0.8-0.2-1.9-0.5-2.4-0.5-0.5 0-1.4 0.6-2 1.3-0.7 0.7-1 2.6-0.9 4.1zm23-9.3c2.1 0 4.5 0.2 5.3 0.4 0.8 0.3 1.5 1.3 1.5 2.3 0 1.4-0.9 1.7-4.3 1.7-2.3 0-4.4 0.5-4.6 1-0.2 0.6 1.2 1.3 3.1 1.5 1.9 0.3 4.2 1.2 5.2 2 0.9 0.9 1.7 2.6 1.6 3.8 0 1.2-1 2.9-2.3 3.8-1.2 0.8-3.9 1.5-6 1.5-2 0-4.4-0.3-5.2-0.6-0.8-0.2-1.5-1.2-1.5-2.2 0-1.4 0.9-1.8 4.2-1.8 2.4 0 4.4-0.4 4.5-1 0.2-0.5-1.2-1.3-3-1.8-1.8-0.5-3.8-1.4-4.5-2-0.7-0.6-1.4-2.4-1.4-3.9-0.1-1.7 0.5-3 1.8-3.7 1-0.5 3.6-1 5.6-1zm20.3-0.1c2.2 0 4.4 0.9 5.9 2.3 1.3 1.2 2.7 3.5 3.6 7.7h-6.5c-3.6 0-6.5 0.4-6.6 0.8 0 0.4 0.7 1.4 1.7 2.2 1.2 1.2 2.7 1.4 6 0.8 3.6-0.6 4.4-0.5 4.4 0.7 0 0.9-1.1 2-2.5 2.5-1.4 0.6-4.1 1-6 1-2.3 0-4.5-0.8-6.3-2.4-2.1-1.9-2.7-3.2-2.7-6.6 0-3.3 0.5-4.6 2.8-6.5 1.8-1.6 4.1-2.5 6.2-2.5zm-3.7 6.2c0.1 0.5 1.8 0.8 3.7 0.8 2.3 0 3.4-0.4 3.2-1.2-0.2-0.7-1.5-1.4-2.8-1.5-1.4-0.2-2.9 0-3.4 0.4-0.5 0.4-0.8 1.1-0.7 1.5zm65.7-6.1c2.4-0.1 4.9 0.6 6.3 1.7 2 1.4 2.5 3 3.7 16.3h-3.3c-1.8 0-3.2-0.5-3.2-1.1 0-0.6-0.8-0.5-2.3 0.2-1.2 0.6-3.5 0.8-5 0.5-1.5-0.4-3.2-1.6-3.7-2.7-0.6-1.1-0.7-3.1-0.3-4.6 0.4-1.5 1.8-3 3-3.5 1.3-0.5 3.7-0.8 5.5-0.8 2.3 0 3-0.3 2.3-1.1-0.6-0.6-2.9-0.9-5.3-0.8-3.3 0.3-4.3 0-4.4-1.3-0.1-0.9 0.4-1.9 1.2-2.2 0.8-0.3 3.3-0.5 5.5-0.6zm-2.7 12c0.1 1.4 1 1.9 2.7 1.9 1.4 0 2.7-0.6 3-1.5 0.3-0.8 0.5-1.9 0.5-2.5 0-0.5-0.8-0.9-1.8-0.9-0.9 0.1-2.4 0.3-3.2 0.6-0.8 0.3-1.3 1.4-1.2 2.4zm19.7-12.1c1.4 0 2.5 0.5 2.5 1 0 0.7 0.8 0.6 2.3-0.1 1.3-0.6 3.5-0.8 5-0.5 1.6 0.4 3.1 1.7 3.7 3.1 0.5 1.4 1 5.3 1 14.5h-6v-6.5c0-5.2-0.3-6.6-1.8-7.1-1.1-0.4-2.2 0-3 1.2-0.7 1.1-1.2 4.3-1.2 7.2 0 4.9-0.2 5.2-2.5 5.2-2.5 0-2.5 0-2.5-9 0-8.9 0-9 2.5-9zm24.5 0v6.5c0 4.9 0.4 6.7 1.5 7 0.8 0.3 2.2 0 3-0.7 1.1-0.9 1.6-3 1.5-7 0-5.7 0-5.8 6-5.8v18h-3c-1.7 0-3-0.4-3-1 0-0.6-0.8-0.5-2.3 0.2-1.2 0.6-3.5 0.8-5 0.5-1.9-0.5-3-1.6-3.7-3.9-0.6-1.8-1-5.6-1-8.5 0-5.2 0-5.3 6-5.3zm24.5 0c2.2 0 4.4 0.9 5.9 2.3 1.3 1.2 2.7 3.5 3.6 7.7h-6.5c-3.6 0-6.5 0.4-6.6 0.8 0 0.4 0.7 1.4 1.7 2.2 1.2 1.2 2.7 1.4 6 0.8 3.6-0.6 4.4-0.5 4.4 0.7 0 0.9-1.1 2-2.5 2.5-1.4 0.6-4.1 1-6 1-2.3 0-4.5-0.8-6.3-2.4-2.1-1.9-2.7-3.2-2.7-6.6 0-3.3 0.5-4.6 2.8-6.5 1.8-1.6 4.1-2.5 6.2-2.5zm-3.7 6.2c0.1 0.5 1.8 0.8 3.7 0.8 2.3 0 3.4-0.4 3.2-1.2-0.2-0.7-1.5-1.4-2.8-1.5-1.4-0.2-2.9 0-3.4 0.4-0.5 0.4-0.8 1.1-0.7 1.5zm68.7-6.2c2.2 0 4.4 0.9 5.9 2.3 1.3 1.2 2.7 3.5 3.6 7.7h-6.5c-3.6 0-6.5 0.4-6.6 0.8 0 0.4 0.7 1.4 1.7 2.2 1.2 1.2 2.7 1.4 6 0.8 3.6-0.6 4.4-0.5 4.4 0.7 0 0.9-1.1 2-2.5 2.5-1.4 0.6-4.1 1-6 1-2.3 0-4.5-0.8-6.3-2.4-2.1-1.9-2.7-3.2-2.7-6.6 0-3.3 0.5-4.6 2.8-6.5 1.8-1.6 4.1-2.5 6.2-2.5zm-3.7 6.2c0.1 0.5 1.8 0.8 3.7 0.8 2.3 0 3.4-0.4 3.2-1.2-0.2-0.7-1.5-1.4-2.8-1.5-1.4-0.2-2.9 0-3.4 0.4-0.5 0.4-0.8 1.1-0.7 1.5zm54.7-6.1c2.4-0.1 4.9 0.6 6.3 1.7 2 1.4 2.5 3 3.7 16.3h-3.3c-1.8 0-3.2-0.5-3.2-1.1 0-0.6-0.8-0.5-2.3 0.2-1.2 0.6-3.5 0.8-5 0.5-1.5-0.4-3.2-1.6-3.7-2.7-0.6-1.1-0.7-3.1-0.3-4.6 0.4-1.5 1.8-3 3-3.5 1.3-0.5 3.7-0.8 5.5-0.8 2.3 0 3-0.3 2.3-1.1-0.6-0.6-2.9-0.9-5.3-0.8-3.3 0.3-4.3 0-4.4-1.3-0.1-0.9 0.4-1.9 1.2-2.2 0.8-0.3 3.3-0.5 5.5-0.6zm-2.7 12c0.1 1.4 1 1.9 2.7 1.9 1.4 0 2.7-0.6 3-1.5 0.3-0.8 0.5-1.9 0.5-2.5 0-0.5-0.8-0.9-1.8-0.9-0.9 0.1-2.4 0.3-3.2 0.6-0.8 0.3-1.3 1.4-1.2 2.4zm-495.7 12.9c3.2 0 3.9 0.4 3.9 2 0 1.5-0.7 2-2.5 2-1.4 0-2.5 0.5-2.5 1 0 0.6 0.9 1 2 1q2 0.1 2 2 0 2-2 2c-1.8 0-2 0.7-2 14h-6v-7c0-4-0.4-7-1-7-0.6 0-1-0.9-1-2 0-1.1 0.4-2 1-2 0.5 0 0.9-0.5 0.8-1.1-0.1-0.7 0.6-2 1.7-3 1.1-1.2 3.2-1.9 5.6-1.9zm100.9 0h2.5c2.2 0 2.5 0.4 2.5 4 0 2.3 0.2 4 0.5 4 0.3 0 1.3-0.5 2.2-1.1 1-0.6 3-0.8 4.5-0.5 1.7 0.4 3.2 1.7 3.8 3.1 0.5 1.4 1 5.3 1 14.5h-6v-6.5c0-5.2-0.3-6.6-1.8-7.1-1.1-0.4-2.2 0-3 1.2-0.7 1.1-1.2 4.3-1.2 7.2 0 4.9-0.2 5.2-5 5.2zm217.5 0c2 0 2.5 0.5 2.5 2.5 0 2-0.5 2.5-2.5 2.5-2 0-2.5-0.5-2.5-2.5 0-2 0.5-2.5 2.5-2.5zm-229.1 1.3c1.3 0.1 2.2 1.1 2.3 2.5 0.2 1.7 0.9 2.2 2.8 2.2 1.8 0 2.5 0.6 2.5 2 0 1.5-0.7 2-2.5 2-2.3 0-2.5 0.4-2.5 5 0 4.7 0.2 5 2.5 5 1.8 0 2.5 0.6 2.5 2 0 1.7-0.7 2-4 2-2.2 0-4.7-0.6-5.5-1.5-1-0.9-1.5-3.4-1.5-7 0-4.2-0.4-5.5-1.5-5.5-0.8 0-1.5-0.8-1.5-2 0-1.1 0.7-2 1.5-2 0.8 0 1.4-0.7 1.3-1.8-0.1-1 0.2-2.1 0.7-2.5 0.5-0.4 1.8-0.6 2.9-0.4zm65.6-0.3h3.2c3 0 3.5 0.5 6.5 6.5 1.8 3.6 3.7 6.5 4.3 6.5 0.5 0 1-2.8 1-6.5 0-6.2 0.1-6.5 5-6.5v23l-3.3 0.1c-3 0-3.5-0.5-6.5-6.5-1.8-3.6-3.7-6.6-4.2-6.6-0.6 0-1 2.9-1 6.5 0 6.3-0.1 6.5-5 6.5zm102 0l5.7 0.1c3.2 0 6.9 0.3 8.2 0.7 1.4 0.4 3 2.1 3.7 3.7 0.7 2 0.9 4 0.3 5.8-0.5 1.5-2 3.2-3.4 3.7-1.4 0.6-3.9 1-5.5 1-2.8 0-3 0.3-3 4 0 3.8-0.2 4-6 4zm7.5 11c0.8 0 2.2-0.2 3-0.5 0.8-0.2 1.5-1.6 1.5-3 0-1.3-0.7-2.7-1.5-3-0.8-0.2-2.2-0.5-3-0.5-1.1 0-1.5 1.1-1.5 3.5 0 2.5 0.4 3.5 1.5 3.5zm104.9-10.7c1.3 0.1 2.2 1.1 2.3 2.5 0.2 1.7 0.9 2.2 2.8 2.2 1.8 0 2.5 0.6 2.5 2 0 1.5-0.7 2-2.5 2-2.3 0-2.5 0.4-2.5 5 0 4.7 0.2 5 2.5 5 1.8 0 2.5 0.6 2.5 2 0 1.7-0.7 2-4 2-2.2 0-4.7-0.6-5.5-1.5-1-0.9-1.5-3.4-1.5-7 0-4.2-0.4-5.5-1.5-5.5-0.8 0-1.5-0.8-1.5-2 0-1.1 0.7-2 1.5-2 0.8 0 1.4-0.7 1.3-1.8-0.1-1 0.2-2.1 0.7-2.5 0.5-0.4 1.8-0.6 2.9-0.4zm-359.9 4.7c1.5 0 2.5 0.6 2.5 1.5 0 1.4 0.2 1.4 1.6 0 0.8-0.8 2.4-1.5 3.5-1.5 1.3 0 1.9 0.7 1.9 2.5 0 2-0.5 2.5-2.3 2.5-1.3 0-2.9 0.6-3.5 1.3-0.7 0.7-1.2 3.6-1.2 6.5 0 4.9-0.2 5.2-2.5 5.2-2.5 0-2.5 0-2.5-9 0-8.9 0-9 2.5-9zm19.5 0c1.7 0 4.1 0.6 5.5 1.3 1.4 0.7 2.9 2.3 3.5 3.5 0.5 1.2 1 3.1 1 4.2 0 1.1-0.5 3.1-1 4.3-0.6 1.2-2.1 2.8-3.5 3.5-1.4 0.7-3.9 1.2-5.5 1.2-1.8 0-4.2-1-5.8-2.4-2.1-1.9-2.7-3.2-2.7-6.6 0-3.3 0.5-4.6 2.8-6.5 1.6-1.4 4.1-2.5 5.7-2.5zm-2.8 9.4c0.2 1.6 1 3.4 1.8 3.9 0.8 0.6 2.3 0.8 3.2 0.4 1.3-0.5 1.8-1.8 1.8-4.7q0-4-1.5-4.5c-0.8-0.2-1.9-0.5-2.4-0.5-0.5 0-1.4 0.6-2 1.3-0.7 0.7-1 2.6-0.9 4.1zm19.3-9.4c1.4 0 2.5 0.5 2.5 1 0 0.7 1.1 0.6 2.9-0.2 2.4-1.1 3.2-1 5.2 0.4 2.1 1.4 2.6 1.4 4.4 0.2 1.1-0.8 3-1.4 4.2-1.4 1.3 0 3 1.1 3.8 2.3 1 1.5 1.5 4.6 1.5 15.7h-6l0.2-5.9c0.2-3.6-0.2-6.5-0.9-7.3-1-1-1.5-1-2.8 0.2-1.1 1.1-1.6 3.3-1.6 7.3 0.1 5.5 0 5.7-2.4 5.7-2.4 0-2.5-0.3-2.8-5.9-0.1-3.3-0.8-6.5-1.4-7.2-1-1.1-1.5-1.1-2.8 0.1-1.1 1.1-1.6 3.3-1.6 7.3 0.1 5.5 0 5.7-2.4 5.7-2.5 0-2.5 0-2.5-9 0-8.9 0-9 2.5-9zm85 0c2.2 0 4.4 0.9 5.9 2.3 1.3 1.2 2.7 3.5 3.6 7.7h-6.5c-3.6 0-6.5 0.4-6.6 0.8 0 0.4 0.7 1.4 1.7 2.2 1.2 1.2 2.7 1.4 6 0.8 3.6-0.6 4.4-0.5 4.4 0.7 0 0.9-1.1 2-2.5 2.5-1.4 0.6-4.1 1-6 1-2.3 0-4.5-0.8-6.3-2.4-2.1-1.9-2.7-3.2-2.7-6.6 0-3.3 0.5-4.6 2.8-6.5 1.8-1.6 4.1-2.5 6.2-2.5zm-3.7 6.2c0.1 0.5 1.8 0.8 3.7 0.8 2.3 0 3.4-0.4 3.2-1.2-0.2-0.7-1.5-1.4-2.8-1.5-1.4-0.2-2.9 0-3.4 0.4-0.5 0.4-0.8 1.1-0.7 1.5zm61.2-6.2c1.7 0 4.1 0.6 5.5 1.3 1.4 0.7 2.9 2.3 3.5 3.5 0.5 1.2 1 3.1 1 4.2 0 1.1-0.5 3.1-1 4.3-0.6 1.2-2.1 2.8-3.5 3.5-1.4 0.7-3.9 1.2-5.5 1.2-1.8 0-4.2-1-5.8-2.4-2.1-1.9-2.7-3.2-2.7-6.6 0-3.3 0.5-4.6 2.8-6.5 1.6-1.4 4.1-2.5 5.7-2.5zm-2.8 9.4c0.2 1.6 1 3.4 1.8 3.9 0.8 0.6 2.3 0.8 3.2 0.4 1.3-0.5 1.8-1.8 1.8-4.7q0-4-1.5-4.5c-0.8-0.2-1.9-0.5-2.4-0.5-0.5 0-1.4 0.6-2 1.3-0.7 0.7-1 2.6-0.9 4.1zm21.8-9.4v6.5c0 4.9 0.4 6.7 1.5 7 0.8 0.3 2.2 0 3-0.7 1.1-0.9 1.6-3 1.5-7 0-5.7 0-5.8 6-5.8v18h-3c-1.7 0-3-0.4-3-1 0-0.6-0.8-0.5-2.3 0.2-1.2 0.6-3.5 0.8-5 0.5-1.9-0.5-3-1.6-3.7-3.9-0.6-1.8-1-5.6-1-8.5 0-5.2 0-5.3 6-5.3zm19.5 0c1.4 0 2.5 0.5 2.5 1 0 0.7 0.8 0.6 2.3-0.1 1.3-0.6 3.5-0.8 5-0.5 1.6 0.4 3.1 1.7 3.7 3.1 0.5 1.4 1 5.3 1 14.5h-6v-6.5c0-5.2-0.3-6.6-1.8-7.1-1.1-0.4-2.2 0-3 1.2-0.7 1.1-1.2 4.3-1.2 7.2 0 4.9-0.2 5.2-2.5 5.2-2.5 0-2.5 0-2.5-9 0-8.9 0-9 2.5-9zm56 0c1.5 0 2.5 0.6 2.5 1.5 0 1.4 0.2 1.4 1.6 0 0.8-0.8 2.4-1.5 3.5-1.5 1.3 0 1.9 0.7 1.9 2.5 0 2-0.5 2.5-2.3 2.5-1.3 0-2.9 0.6-3.5 1.3-0.7 0.7-1.2 3.6-1.2 6.5 0 4.9-0.2 5.2-2.5 5.2-2.5 0-2.5 0-2.5-9 0-8.9 0-9 2.5-9zm19.5 0c1.7 0 4.1 0.6 5.5 1.3 1.4 0.7 2.9 2.3 3.5 3.5 0.5 1.2 1 3.1 1 4.2 0 1.1-0.5 3.1-1 4.3-0.6 1.2-2.1 2.8-3.5 3.5-1.4 0.7-3.9 1.2-5.5 1.2-1.8 0-4.2-1-5.8-2.4-2.1-1.9-2.7-3.2-2.7-6.6 0-3.3 0.5-4.6 2.8-6.5 1.6-1.4 4.1-2.5 5.7-2.5zm-2.8 9.4c0.2 1.6 1 3.4 1.8 3.9 0.8 0.6 2.3 0.8 3.2 0.4 1.3-0.5 1.8-1.8 1.8-4.7q0-4-1.5-4.5c-0.8-0.2-1.9-0.5-2.4-0.5-0.5 0-1.4 0.6-2 1.3-0.7 0.7-1 2.6-0.9 4.1zm35.3-9.4c2.2 0 4.4 0.9 5.9 2.3 1.3 1.2 2.7 3.5 3.6 7.7h-6.5c-3.6 0-6.5 0.4-6.6 0.8 0 0.4 0.7 1.4 1.7 2.2 1.2 1.2 2.7 1.4 6 0.8 3.6-0.6 4.4-0.5 4.4 0.7 0 0.9-1.1 2-2.5 2.5-1.4 0.6-4.1 1-6 1-2.3 0-4.5-0.8-6.3-2.4-2.1-1.9-2.7-3.2-2.7-6.6 0-3.3 0.5-4.6 2.8-6.5 1.8-1.6 4.1-2.5 6.2-2.5zm-3.7 6.2c0.1 0.5 1.8 0.8 3.7 0.8 2.3 0 3.4-0.4 3.2-1.2-0.2-0.7-1.5-1.4-2.8-1.5-1.4-0.2-2.9 0-3.4 0.4-0.5 0.4-0.8 1.1-0.7 1.5zm25.5-6c3.5 0.3 4.2 0.7 4.4 2.6 0.3 2.1 0 2.2-3.1 1.5-3.1-0.7-3.6-0.5-4.8 2-1.1 2.3-1.1 3.2 0 5.5 1.2 2.5 1.7 2.7 4.8 2 3.1-0.7 3.4-0.6 3.1 1.5-0.2 1.9-0.9 2.3-4.5 2.5-3.3 0.2-4.8-0.3-7-2.2-2.1-1.9-2.7-3.2-2.7-6.6 0-3.3 0.5-4.6 2.8-6.6 2.3-1.9 3.8-2.4 7-2.2z"/>
</svg>