<svg width="52" height="52" viewBox="0 0 52 52" fill="none" xmlns="http://www.w3.org/2000/svg">
<g clip-path="url(#clip0_3758_21372)">
<path d="M25.9281 52C25.1259 52 24.3421 51.9931 23.5961 51.9782C21.9471 51.9461 20.7416 50.8025 20.5961 49.1317L20.5812 48.9633C20.5044 48.0809 20.4242 47.1688 20.3715 46.2669C20.3635 46.1237 20.3612 46.0939 20.0953 45.9907C18.8061 45.4877 17.4746 44.9342 16.0238 44.3005C15.9517 44.2645 15.8744 44.2401 15.7946 44.2283C15.782 44.2283 15.7419 44.2283 15.6468 44.3154C15.0738 44.8311 14.4825 45.3295 13.905 45.812L13.5039 46.1477C12.8679 46.6829 12.1552 46.9659 11.4412 46.9659C10.6551 46.9659 9.8931 46.6222 9.23763 45.977C8.06305 44.8196 7.00192 43.7573 5.9935 42.7317C4.78454 41.4987 4.72266 39.8417 5.84453 38.5101L6.05882 38.2546C6.58136 37.6312 7.12224 36.9872 7.67572 36.3684C7.79032 36.2377 7.81094 36.2091 7.71583 35.9948C7.10505 34.6197 6.5275 33.2285 5.99694 31.8695C5.90641 31.6403 5.87203 31.6288 5.70472 31.6185C4.91632 31.575 4.11876 31.5039 3.34755 31.442L2.8972 31.4031C1.17372 31.261 0.0461237 30.0681 0.0197673 28.3663C-0.0065891 26.6474 -0.0065891 25.0833 0.0197673 23.6004C0.0518533 21.9274 1.1657 20.7493 2.86511 20.5992C3.71768 20.5247 4.72495 20.4388 5.72993 20.37C5.86745 20.3609 5.90412 20.3586 5.98891 20.1409C6.50917 18.8173 7.07869 17.4514 7.72844 15.9662C7.80636 15.7863 7.80178 15.7806 7.71698 15.6855C7.14401 15.0426 6.58938 14.3768 6.04736 13.7374L5.8514 13.5082C4.70547 12.148 4.77538 10.5139 6.02902 9.24422C7.08557 8.17506 8.16389 7.09674 9.2319 6.03561C9.8931 5.38587 10.6574 5.04209 11.4412 5.04209C12.1575 5.04209 12.8828 5.3343 13.5372 5.88664L13.9474 6.23042C14.5204 6.71056 15.1082 7.2079 15.6778 7.71096C15.7104 7.74641 15.752 7.77251 15.7981 7.78659C15.8542 7.78034 15.9086 7.76362 15.9585 7.73732C17.4654 7.07955 18.8497 6.50544 20.187 5.9829C20.3348 5.9256 20.3543 5.90498 20.3703 5.6861C20.4425 4.67998 20.517 3.7449 20.5995 2.82128C20.7416 1.19635 21.9185 0.0733395 23.5239 0.032086C24.349 0.0103134 25.1832 0 26.0049 0C26.8265 0 27.6539 0.0103134 28.4686 0.032086C30.0821 0.0733395 31.259 1.22042 31.3988 2.88545L31.4377 3.34382C31.5019 4.11045 31.5695 4.90343 31.6153 5.68725C31.6257 5.86945 31.6348 5.90727 31.8525 5.99092C33.0844 6.46992 34.4114 7.02226 36.0283 7.72815C36.0822 7.75676 36.1408 7.77539 36.2014 7.78315C36.23 7.78315 36.2816 7.74076 36.3102 7.71555C36.9439 7.15175 37.6028 6.59826 38.24 6.06197L38.4944 5.84768C39.1258 5.31597 39.8385 5.03407 40.557 5.03407C41.3351 5.03407 42.0823 5.3641 42.7183 5.98634C43.8894 7.13227 44.9643 8.20944 46.0048 9.27286C47.2114 10.5059 47.271 12.164 46.1549 13.4956C45.5476 14.2198 44.9242 14.9647 44.2882 15.6809C44.1988 15.7817 44.1919 15.7955 44.2664 15.9617C44.9941 17.629 45.5269 18.9182 45.9991 20.142C46.0758 20.3425 46.1136 20.3586 46.313 20.3712C47.3352 20.4399 48.3482 20.5259 49.1183 20.5935C50.8051 20.7425 51.9247 21.8918 51.9693 23.5225C52.014 25.1532 52.0152 26.8251 51.9693 28.4683C51.9247 30.0829 50.7764 31.2598 49.1137 31.3973L48.6736 31.434C47.8807 31.5005 47.0613 31.5692 46.2512 31.6173C46.1102 31.6254 46.085 31.6277 46.0002 31.8465C45.4857 33.1632 44.9196 34.5292 44.2698 36.0257C44.1908 36.2068 44.1965 36.2125 44.2813 36.3076C44.8703 36.9711 45.449 37.661 46.0094 38.3279L46.148 38.4929C47.2676 39.8268 47.2137 41.485 46.0105 42.7157C45.2084 43.5339 44.3867 44.3521 43.5903 45.1428L42.6862 46.0423C42.0754 46.6508 41.3374 46.9293 40.219 46.9717H40.1319L40.0551 46.9338C39.9829 46.8995 39.8855 46.8582 39.7732 46.8101C39.3525 46.6477 38.9516 46.4382 38.578 46.1856C37.8909 45.6715 37.2322 45.1207 36.6047 44.5354L36.3618 44.3177C36.2541 44.2203 36.2128 44.2203 36.1945 44.2203C36.1222 44.229 36.052 44.2504 35.9871 44.2833C34.5191 44.9285 33.1681 45.4865 31.8617 45.9907C31.6417 46.0755 31.6325 46.1053 31.6222 46.291C31.5787 47.0312 31.5156 47.7807 31.4549 48.5038L31.4056 49.0962C31.2647 50.8151 30.0729 51.945 28.3701 51.9714C27.5026 51.9931 26.7096 52 25.9281 52ZM15.7408 42.6366C15.934 42.6412 16.1223 42.6986 16.2851 42.8028C17.7566 43.666 19.3403 44.3216 20.9914 44.7508C21.4784 44.8792 21.7306 45.192 21.7615 45.7066C21.8188 46.6359 21.8956 47.5813 21.9701 48.4958L22.0033 48.8968C22.0904 49.9763 22.6805 50.5263 23.7543 50.5309C24.4877 50.5309 25.2218 50.5309 25.9567 50.5309C26.7115 50.5309 27.4659 50.5309 28.22 50.5309C29.2994 50.5309 29.8942 49.982 29.9858 48.9129L30.0202 48.5198C30.0993 47.6237 30.1806 46.6966 30.2196 45.7868C30.2494 45.0992 30.6619 44.8792 31.0458 44.7279C32.5894 44.1206 34.1639 43.4674 35.7235 42.789C35.8949 42.7058 36.0819 42.6597 36.2724 42.6538C36.53 42.6589 36.776 42.7622 36.96 42.9426C37.5776 43.4892 38.2205 44.0312 38.8404 44.556L39.3481 44.9858C39.7698 45.3433 40.1766 45.5243 40.5559 45.5243C40.9627 45.5243 41.3638 45.3238 41.7809 44.9124C42.7824 43.9223 43.8023 42.9036 44.8978 41.7966C45.6919 40.9945 45.724 40.2198 44.9975 39.3604L44.7019 39.0109C44.1289 38.3382 43.5456 37.6415 42.9543 36.9723C42.7251 36.711 42.457 36.295 42.8053 35.7049C43.6612 34.2527 44.3085 32.6873 44.7282 31.0547C44.8669 30.5173 45.1958 30.2525 45.7653 30.225C46.6992 30.1792 47.6503 30.0978 48.5705 30.0188L48.8937 29.9913C49.9708 29.8996 50.5209 29.3106 50.5266 28.2391C50.5266 27.7273 50.5266 27.2151 50.5266 26.7025V25.3136C50.5266 24.8002 50.5266 24.2876 50.5266 23.7758C50.5266 22.6928 49.9777 22.0981 48.9097 22.0087L48.323 21.9595C47.4888 21.8873 46.627 21.8139 45.7813 21.7738C45.0938 21.7417 44.8726 21.3292 44.7213 20.9442C44.0418 19.2081 43.4161 17.6966 42.8076 16.3203C42.5693 15.7817 42.6208 15.3956 42.9853 14.9888C43.5238 14.3871 44.0544 13.7569 44.5689 13.1473C44.7087 12.9799 44.8497 12.8138 44.9906 12.6465C45.7194 11.7859 45.6908 11.0112 44.899 10.2114C43.8562 9.15598 42.8076 8.10745 41.782 7.09445C41.3615 6.67848 40.9593 6.4768 40.5513 6.4768C40.1754 6.4768 39.7721 6.65671 39.3515 7.01309C39.1074 7.21936 38.8645 7.42792 38.6227 7.63648C38.0612 8.12006 37.4768 8.61968 36.8866 9.08608C36.6824 9.22721 36.4392 9.30094 36.191 9.29693C36.0426 9.30175 35.8953 9.2682 35.7636 9.19952C34.2597 8.34844 32.6556 7.68789 30.9885 7.23311C30.5004 7.10247 30.2586 6.7988 30.2276 6.2797C30.1887 5.62995 30.1359 4.96761 30.0844 4.33161C30.0546 3.95575 30.0248 3.57988 29.9973 3.20402C29.9102 2.0283 29.3281 1.47825 28.1638 1.47481H25.9602H23.8116C22.6759 1.47481 22.0824 2.03059 21.9976 3.16277C21.9712 3.52259 21.9414 3.88241 21.9128 4.24223C21.8589 4.91718 21.7982 5.61735 21.7615 6.29918C21.7306 6.80797 21.4762 7.11852 20.9834 7.24801C19.3343 7.68095 17.7531 8.34041 16.2851 9.20755C16.1225 9.31116 15.9347 9.36859 15.7419 9.37371C15.4868 9.36466 15.2444 9.26041 15.0624 9.08149C14.3256 8.4329 13.5154 7.74076 12.5872 6.96725C12.201 6.64639 11.8194 6.48367 11.4516 6.48367C11.0448 6.48367 10.638 6.68306 10.2415 7.07612C9.2445 8.06505 8.21087 9.09754 7.08213 10.2343C6.32009 11.0009 6.288 11.8031 6.98244 12.6213C7.12109 12.784 7.25861 12.9479 7.39612 13.1106C7.92554 13.7374 8.47214 14.386 9.02677 15.0048C9.48515 15.5147 9.34305 15.9617 9.17575 16.3398C8.51569 17.8295 7.87053 19.3857 7.25746 20.9613C7.10505 21.3647 6.86326 21.7417 6.18831 21.7727C5.17874 21.8231 4.1497 21.9136 3.15618 22.0019L3.06106 22.011C2.02973 22.1027 1.47395 22.6986 1.47051 23.7437C1.47051 25.0603 1.47051 26.4801 1.47051 28.2128C1.47051 29.3255 2.01598 29.9088 3.12753 29.997L3.80821 30.0532C4.61036 30.1185 5.44345 30.1861 6.25935 30.2308C6.7968 30.2594 7.11078 30.515 7.24829 31.0329C7.67316 32.6658 8.32301 34.2316 9.17918 35.6854C9.45191 36.1438 9.40837 36.562 9.06459 36.9585C8.46756 37.6312 7.87626 38.3336 7.30444 39.0097L6.98358 39.389C6.28113 40.2198 6.31436 41.0025 7.08557 41.7795C8.01033 42.7134 9.00042 43.7035 10.2025 44.8975C10.6299 45.3227 11.0379 45.5289 11.4504 45.5289C11.8228 45.5289 12.2216 45.3525 12.633 45.0052L12.7614 44.8975C13.5223 44.257 14.3095 43.5946 15.067 42.9277C15.2474 42.7499 15.4877 42.6461 15.7408 42.6366Z" fill="#E5A338"/>
<path d="M25.9472 39.8691C18.3108 39.8508 12.1101 33.6146 12.125 25.9667C12.1399 18.3187 18.36 12.1284 25.9908 12.1284H26.0126C33.6548 12.1364 39.8714 18.3588 39.8691 25.9942C39.8668 33.6295 33.6341 39.8691 25.9805 39.8691H25.9472ZM25.9896 13.5608C22.6931 13.566 19.533 14.8778 17.202 17.2088C14.871 19.5399 13.5592 22.6999 13.554 25.9965C13.5607 29.2896 14.8713 32.4462 17.1992 34.7755C19.527 37.1049 22.6827 38.4176 25.9759 38.4264H26.0057C29.3032 38.4264 32.4657 37.1164 34.7974 34.7847C37.1291 32.453 38.439 29.2905 38.439 25.993C38.439 22.6955 37.1291 19.533 34.7974 17.2013C32.4657 14.8696 29.3032 13.5597 26.0057 13.5597L25.9896 13.5608Z" fill="#E5A338"/>
</g>
<defs>
<clipPath id="clip0_3758_21372">
<rect width="52" height="52" fill="white"/>
</clipPath>
</defs>
</svg>
