<svg width="75" height="40" viewBox="0 0 75 40" fill="none" xmlns="http://www.w3.org/2000/svg">
<g clip-path="url(#clip0_3758_21392)">
<path d="M37.0502 40C52.6761 39.9706 65.257 33.5799 74.4412 21.0072C75.1908 19.9906 75.1772 19.9719 74.4548 18.9928C66.4156 7.88604 55.6939 1.60503 42.5951 0.283555C40.7501 0.0976538 38.8967 0.00301567 37.042 0C22.1876 0 9.8766 6.42011 0.457985 19.0945C-0.152657 19.9131 -0.152657 20.012 0.457985 20.8814C3.46284 25.2079 7.23026 28.9737 11.5831 32.0016C11.8037 32.1724 12.0716 32.274 12.3519 32.2932C12.4632 32.2916 12.5725 32.2636 12.6703 32.2114C12.7682 32.1592 12.8516 32.0844 12.9135 31.9936C12.9853 31.9183 13.0381 31.8275 13.0675 31.7285C13.0968 31.6295 13.102 31.5251 13.0825 31.4238C12.9872 31.1312 12.7954 30.878 12.5373 30.7042C12.3955 30.5945 12.251 30.4929 12.1065 30.3885L11.8121 30.1799C8.29266 27.6195 5.18642 24.5533 2.59796 21.0847C2.03912 20.3357 2.03638 19.6482 2.58433 18.9153C7.41199 12.3972 14.0513 7.38204 21.7078 4.47001C21.8211 4.42872 21.9367 4.39389 22.054 4.36568L22.1549 4.33893L24.9409 3.55514L22.9809 5.65238C20.4892 8.32743 18.8318 11.0961 17.9158 14.1243C16.0757 20.2127 17.3706 26.9645 21.3452 32.2183C23.1508 34.6357 25.5114 36.6017 28.2357 37.957C30.9599 39.3122 33.9713 40.0185 37.0257 40.0187L37.0502 40ZM52.8942 4.32288L53.0632 4.37638C53.205 4.41918 53.3522 4.46466 53.5076 4.52618C60.9091 7.4067 67.3528 12.2428 72.124 18.498C72.9418 19.568 72.9418 20.4614 72.0913 21.5154C63.2151 32.6356 51.4439 38.3201 37.1074 38.4351H36.9711C27.7188 38.4351 19.5242 30.7149 18.6846 21.2238C18.262 16.4087 20.2248 11.0212 23.8014 7.19588C25.4372 5.41354 27.4407 3.99321 29.679 3.02926C31.9172 2.06531 34.3389 1.57981 36.783 1.60503C38.6673 1.61632 40.5421 1.86719 42.3606 2.35137C46.709 3.43967 50.5275 5.99701 53.145 9.574C55.7975 13.2656 56.817 17.7008 56.0946 22.3875C55.9719 23.19 55.7757 23.9684 55.5876 24.7255C55.4921 25.1027 55.3967 25.4798 55.315 25.857C55.2332 26.2342 55.2822 26.7692 55.7239 26.927C55.8405 26.9715 55.9641 26.9959 56.0892 26.9993C56.1928 26.9993 56.4626 26.9993 56.7243 26.5392C56.994 26.0891 57.1969 25.6036 57.3268 25.0973C58.161 21.3522 58.1283 17.9736 57.2259 14.7663C56.2882 11.4385 54.5898 8.4478 52.0273 5.6176L50.0073 3.38929L52.8942 4.32288Z" fill="#E5A338"/>
<path d="M37.4964 27.7672C41.9372 27.7672 45.2467 24.5571 45.3612 20.1138C45.4021 19.0888 45.2336 18.0661 44.8656 17.1059C44.4976 16.1458 43.9376 15.2676 43.2185 14.523C42.4787 13.7795 41.5952 13.1884 40.6197 12.7842C39.6442 12.38 38.5963 12.1708 37.5373 12.1689H37.4038C33.0775 12.1689 29.7326 15.47 29.6262 19.8463C29.5199 24.2227 32.7994 27.6495 37.2593 27.7645L37.4964 27.7672ZM37.4964 13.774C40.8904 13.774 43.7501 16.6363 43.7392 19.9935C43.737 21.6263 43.0764 23.192 41.9015 24.3483C40.7267 25.5047 39.1332 26.1577 37.4692 26.1648C36.6485 26.1625 35.8365 26.0003 35.0803 25.6876C34.324 25.3749 33.6386 24.9179 33.0638 24.3431C31.888 23.1826 31.23 21.6113 31.2346 19.9747C31.2346 16.6202 34.1052 13.7847 37.4855 13.7847H37.5101L37.4964 13.774Z" fill="#E5A338"/>
</g>
<defs>
<clipPath id="clip0_3758_21392">
<rect width="75" height="40" fill="white" transform="matrix(-1 0 0 1 75 0)"/>
</clipPath>
</defs>
</svg>
