<svg width="503" height="397" viewBox="0 0 503 397" fill="none" xmlns="http://www.w3.org/2000/svg">
<path d="M452.413 51.3171L453.916 50.3938L452.152 50.391L51.5302 49.7613L49.766 49.7585L51.2664 50.6866L251.383 174.46L251.645 174.622L251.908 174.46L452.413 51.3171ZM451.685 347.691L452.185 347.692L452.185 347.192L452.573 100.275L452.575 99.3796L451.812 99.8482L251.569 222.83L51.7148 99.2194L50.9532 98.7483L50.9518 99.6438L50.5637 346.56L50.5629 347.06L51.0629 347.061L451.685 347.691ZM452.228 2.00772C479.501 2.05058 501.771 24.0908 501.729 50.9689L501.263 347.269C501.221 374.147 478.882 396.117 451.608 396.074L50.9868 395.444C23.7136 395.401 1.44371 373.361 1.48596 346.483L1.95168 50.1834C1.99392 23.3053 24.333 1.33516 51.6062 1.37803L452.228 2.00772Z" fill="#0655CD" stroke="#0655CD"/>
</svg>
