<svg width="50" height="59" viewBox="0 0 50 59" fill="none" xmlns="http://www.w3.org/2000/svg">
<g clip-path="url(#clip0_3758_21377)">
<path d="M19.8633 58.9998C19.6163 58.9999 19.3781 58.9074 19.1955 58.7406C19.0013 58.5628 18.8854 58.3149 18.8732 58.0515C18.861 57.7881 18.9534 57.5305 19.1303 57.3354C19.3076 57.1412 19.554 57.025 19.8162 57.0119H24.3472V38.6427H16.5436C16.2809 38.6427 16.0291 38.538 15.8434 38.3517C15.6577 38.1654 15.5533 37.9128 15.5533 37.6493V24.0819C15.5506 23.835 15.6403 23.596 15.8046 23.4121C15.9689 23.2283 16.1959 23.1128 16.4409 23.0886H24.3447V18.9699H8.43083C8.18458 18.9688 7.94783 18.8745 7.76785 18.7058L0.326539 11.9222C0.223728 11.8289 0.141549 11.7151 0.0853045 11.588C0.02906 11.4609 0 11.3235 0 11.1844C0 11.0454 0.02906 10.9079 0.0853045 10.7808C0.141549 10.6538 0.223728 10.5399 0.326539 10.4467L7.76664 3.663C7.92626 3.52372 8.12585 3.43888 8.33663 3.42072H24.3472V1.0222C24.3391 0.772449 24.4254 0.528862 24.5889 0.340345C24.7525 0.151828 24.981 0.0323366 25.2287 0.00585938C25.2649 0.00585938 25.3012 0.00585938 25.3374 0.00585938C25.4686 0.00616375 25.5984 0.032606 25.7193 0.0836506C25.8402 0.134695 25.9498 0.209325 26.0417 0.303206C26.1336 0.397087 26.206 0.508348 26.2546 0.630528C26.3033 0.752709 26.3273 0.883373 26.3252 1.01493V3.42072H33.4501C33.7126 3.42105 33.9641 3.52584 34.1496 3.71209C34.335 3.89834 34.4392 4.15081 34.4392 4.41405V17.9814C34.4392 18.2447 34.335 18.4972 34.1496 18.6834C33.9641 18.8697 33.7126 18.9745 33.4501 18.9748H26.3252V23.0934H41.581C41.8224 23.0935 42.0555 23.1818 42.2367 23.3418L49.6708 30.1255C49.7739 30.2185 49.8564 30.3323 49.9129 30.4594C49.9694 30.5865 49.9985 30.7241 49.9985 30.8632C49.9985 31.0023 49.9694 31.1399 49.9129 31.267C49.8564 31.3941 49.7739 31.5079 49.6708 31.6009L42.2319 38.3846C42.0498 38.5538 41.8111 38.6484 41.5629 38.6499H26.3252V57.0144H30.7632C31.0258 57.0144 31.2777 57.119 31.4634 57.3053C31.6491 57.4916 31.7535 57.7442 31.7535 58.0077C31.7535 58.2711 31.6491 58.5238 31.4634 58.7101C31.2777 58.8964 31.0258 59.001 30.7632 59.001H19.8633V58.9998ZM17.5362 36.6608H41.1789L47.5369 30.8717L41.2006 25.0753H17.5314L17.5362 36.6608ZM2.4616 11.199L8.81485 16.9893H32.4623V5.40738H8.79311L2.4616 11.199Z" fill="#E5A338"/>
</g>
<defs>
<clipPath id="clip0_3758_21377">
<rect width="50" height="59" fill="white"/>
</clipPath>
</defs>
</svg>
