<svg version="1.2" xmlns="http://www.w3.org/2000/svg" viewBox="0 0 696 562" width="696" height="562">
	<title>file</title>
	<style>
		.s0 { fill: #0655CD } 
	</style>
	<path id="Path 0" fill-rule="evenodd" class="s0" d="m349 0c316.4 0 335.6 0.1 337.6 1.8 1.2 0.9 2.7 2.7 3.3 4 0.8 1.6 1.1 37.8 1.1 129.4 0 119.9-0.1 127.4-1.7 129.7-1 1.4-3.3 3.1-5.1 3.8-1.9 0.8-7.4 1.3-24.2 1.3v269l25.2 0.5 2.9 3.3c1.8 2 2.9 4.3 2.9 6.2 0 1.6-0.6 4.2-1.3 5.6-0.6 1.5-2.4 3.3-4 4-2.3 1.2-54.7 1.4-336.7 1.4-282 0-334.4-0.2-336.8-1.4-1.5-0.7-3.3-2.5-4-4-0.6-1.4-1.2-4-1.2-5.6 0-1.9 1.1-4.2 5.8-9.5l25.2-0.5v-269h-10.5c-6.3 0-11.8-0.5-13.8-1.3-1.7-0.7-4-2.4-5-3.8-1.6-2.3-1.7-9.8-1.7-129.7 0-91.6 0.3-127.8 1.1-129.5 0.6-1.2 2.1-3 3.3-3.9 2-1.7 21.2-1.8 337.6-1.8zm-321 249h72c0-83.6 0.3-96.1 1.3-98 0.7-1.6 13.7-10.9 34.4-24.8 28.7-19.1 33.8-22.2 37-22.2 3.3 0 8.4 3.1 35.7 21.3 17.5 11.6 32.9 22.4 34.2 23.9l2.4 2.8v97h208c0-80.1 0.4-96.7 1.1-98.3 0.6-1.2 15.5-11.8 34.5-24.5 27.6-18.3 34-22.2 36.9-22.2 2.9 0 9.2 3.8 36.7 22.2 20.8 13.9 33.8 23.2 34.5 24.8 1 1.9 1.3 14.4 1.3 50.2v47.8h72v-228h-642zm93-88v88l103.5-0.5 0.6-87c-40-26.7-52.1-34.5-52.6-34.4-0.6 0-12.4 7.6-26.3 17zm351.7 0.3l0.8 87.2 103.5 0.5v-88c-39.5-26.4-51.3-34-51.7-34-0.4 0-12.4 7.7-26.7 17.1zm-413.6 377.7h228v-190l5.8-6.5h112.3l5.9 6.5v190h228v-269h-580zm249 0h82v-176h-82zm-83 138h9v23h-5c-4.1 0-5-0.3-5-1.7 0-1-0.6-2.4-1.3-3.1-0.7-0.7-2.7-1.2-4.5-1.2-2.6 0-3.4 0.5-4.5 3-1.1 2.8-1.6 3-6 3-4.7 0-4.7 0-3.9-2.7 0.5-1.6 1.4-3.8 2-5 0.7-1.3 2.5-3 4.2-3.8 1.6-0.8 4.2-1.5 5.7-1.5 1.5 0 3.7 0.6 4.8 1.5 1.1 0.8 2.5 1.5 3.2 1.5 0.9 0 1.3-1.9 1.3-6.5zm35 0h9v6.3c-0.1 3.4 0.3 6.5 0.7 6.9 0.4 0.4 1.9-0.2 3.3-1.3 1.4-1.1 3.7-2 5.2-1.9 1.5 0 4.1 0.7 5.8 1.5 1.6 0.8 3.6 2.7 4.4 4.3 0.7 1.5 1.6 3.7 2 5 0.5 2.1 0.3 2.2-4.2 2.2-4.3 0-4.8-0.2-6-3-1-2.5-1.8-3-4.7-3-3 0-3.7 0.5-4.8 3-1.1 2.8-1.6 3-10.7 3zm186 0h9v23h-5c-4.1 0-5-0.3-5-1.7 0-1-0.6-2.4-1.3-3.1-0.7-0.7-2.7-1.2-4.5-1.2-2.6 0-3.4 0.5-4.5 3-1.1 2.8-1.6 3-6 3-4.7 0-4.7 0-3.9-2.7 0.5-1.6 1.4-3.8 2-5 0.7-1.3 2.5-3 4.2-3.8 1.6-0.8 4.2-1.5 5.7-1.5 1.5 0 3.7 0.6 4.8 1.5 1.1 0.8 2.5 1.5 3.2 1.5 0.9 0 1.3-1.9 1.3-6.5zm-416.5 1c3.3 0 7.4 0.4 9.2 1 2.9 0.9 3.3 1.4 3.3 4.5 0 3.1-0.2 3.4-2.3 2.9-1.2-0.4-4.2-0.8-6.7-1.1-2.5-0.3-5.5-0.2-6.8 0.1-1.2 0.3-3.1 2.1-4.2 3.9-1.1 1.7-2 4.9-2 10.7h-10v-4.7c0-3.2 0.8-6.2 2.4-8.8 1.4-2.5 3.9-4.8 6.7-6.2 3.1-1.6 6.2-2.3 10.4-2.3zm329.6 0h6c5.5 0 5.9 0.2 6.8 2.8 0.5 1.5 2.3 6.4 7.1 19.2h-9.5l-1.8-5.5c-0.9-3-2.1-5.5-2.5-5.5-0.4 0-1.6 2.5-4.7 11.1l-9.5-0.1 2.6-6.7c1.4-3.8 3.3-8.7 4.1-11zm232.9-0.2l9.4 0.7 1 12.5 6.4-6.5c6.1-6.2 6.7-6.5 11-6.6 2.6 0 5 0.2 5.4 0.5 0.4 0.3-3.2 4.3-16.8 17.3l4 4.3h-20.5zm-446.1 2.1h9.4l0.1 7.5 4.8 0.2c4.5 0.3 4.7 0.4 4.7 3.3 0 2.9-0.1 3-5 3-4.9 0-5 0-5 3 0 2.9-0.2 3-4.5 3-4.3 0-4.5-0.1-4.5-3 0-2.4-0.4-3-2-3-1.6 0-2-0.7-2-3 0-2.4 0.4-3 2-3 1.7 0 2-0.7 2-4zm-78.8 7c2.6 0 2.8 0.2 2.8 4 0 3.6-0.2 3.9-2.2 3.4-1.3-0.3-3.5-0.1-5 0.5-1.6 0.6-3 2-3.3 3.1-0.4 1.6-1.3 2-10.5 2v-12h4.5c3.1 0 4.7 0.4 5 1.5 0.4 1.2 0.9 1.2 3.2-0.5 1.4-1.1 3.9-2 5.5-2zm21.1 0c2 0 5.2 0.6 7 1.3 1.7 0.7 4.2 2.6 5.5 4.2 1.2 1.6 2.3 4 2.2 5.2 0 2.2-0.1 2.3-30 2.3l1-3.3c0.6-1.8 1.6-4.1 2.4-5.2 0.7-1 2.8-2.5 4.7-3.2 1.9-0.7 5.1-1.3 7.2-1.3zm-5.5 10.8c0.1 0.7 2.3 1.2 5.7 1.2 4.8 0 5.5-0.3 5.5-2 0-1.1-0.9-2.5-2-3-1.1-0.6-2.8-1-3.8-1-1.1 0-2.7 0.8-3.7 1.8-1 1-1.8 2.3-1.7 3zm38.5-10.7c3.2-0.1 7.3 0.5 9.2 1.4q3.5 1.5 5 5c0.8 1.9 1.5 4.1 1.5 5 0 1.2-2 1.5-11.7 1.4-8 0-11.3-0.3-10.3-0.9 0.8-0.6 4.1-1 7.3-1 3.1 0 5.7-0.5 5.7-1 0-0.6-0.7-1.7-1.5-2.5-0.8-0.9-3.2-1.5-5.2-1.5-2.1 0-5.3 0.4-7 1-3.3 1-3.3 0.9-3.3-2.5 0-2.9 0.4-3.6 2.3-3.9 1.2-0.2 4.8-0.4 8-0.5zm62-0.1c2 0 5.2 0.6 7 1.3 1.7 0.7 4.2 2.6 5.5 4.2 1.2 1.6 2.3 4 2.2 5.2 0 2.2-0.1 2.3-30 2.3l1-3.3c0.6-1.8 1.6-4.1 2.4-5.2 0.7-1 2.8-2.5 4.7-3.2 1.9-0.7 5.1-1.3 7.2-1.3zm-5.5 10.8c0.1 0.7 2.3 1.2 5.7 1.2 4.8 0 5.5-0.3 5.5-2 0-1.1-0.9-2.5-2-3-1.1-0.6-2.8-1-3.8-1-1.1 0-2.7 0.8-3.7 1.8-1 1-1.8 2.3-1.7 3zm229.4-10.8c1.5 0 3.9 0.4 5.3 1 1.4 0.5 3.2 2.5 4 4.5 0.8 1.9 1.5 4.4 1.5 5.5 0 1.6-0.7 2-4.2 2-3.8 0-4.4-0.3-5.5-3-0.9-2.2-2-3-3.7-3-1.4 0-3.2 0.6-4 1.5-0.9 0.8-1.6 2.1-1.6 3 0 1.1-1.2 1.5-10 1.5v-12h4.5c3.1 0 4.7 0.4 5 1.5 0.4 1.2 0.9 1.2 3.2-0.5 1.4-1.1 3.9-2 5.5-2zm74 0c2.6 0 2.8 0.2 2.8 4 0 3.6-0.2 3.9-2.2 3.4-1.3-0.3-3.5-0.1-5 0.5-1.6 0.6-3 2-3.3 3.1-0.4 1.6-1.3 2-10.5 2v-12h4.5c3.1 0 4.7 0.4 5 1.5 0.4 1.2 0.9 1.2 3.2-0.5 1.4-1.1 3.9-2 5.5-2zm21.1 0c2 0 5.2 0.6 7 1.3 1.7 0.7 4.2 2.6 5.5 4.2 1.2 1.6 2.3 4 2.2 5.2 0 2.2-0.1 2.3-30 2.3l1-3.3c0.6-1.8 1.6-4.1 2.4-5.2 0.7-1 2.8-2.5 4.7-3.2 1.9-0.7 5.1-1.3 7.2-1.3zm-5.5 10.8c0.1 0.7 2.3 1.2 5.7 1.2 4.8 0 5.5-0.3 5.5-2 0-1.1-0.9-2.5-2-3-1.1-0.6-2.8-1-3.8-1-1.1 0-2.7 0.8-3.7 1.8-1 1-1.8 2.3-1.7 3zm58.7-10.5c3.9 0.2 7.6 0.7 8.3 1 0.6 0.4 1.2 2 1.2 3.7 0 2.8-0.1 2.9-3.2 2.2-1.8-0.4-5.3-0.7-7.8-0.7-3.5 0-4.5 0.3-4.7 1.7-0.2 1 0.3 1.9 1 2.2 0.6 0.2 2.8 0.8 4.7 1.4 3 0.8 2.4 1-14 1.2v-3.5c0-2 0.3-4.3 0.8-5.2 0.4-0.9 2.1-2.3 3.7-3 1.9-0.9 5.5-1.3 10-1zm111.7-0.3c2.6 0 2.8 0.2 2.8 4 0 3.6-0.2 3.9-2.2 3.4-1.3-0.3-3.5-0.1-5 0.5-1.6 0.6-3 2-3.3 3.1-0.4 1.6-1.3 2-10.5 2v-12h4.5c3.1 0 4.7 0.4 5 1.5 0.4 1.2 0.9 1.2 3.2-0.5 1.4-1.1 3.9-2 5.5-2zm25.6 0c1.2 0 3.1 0.4 4.2 1 1.6 0.8 2 2 2 6.5 0 5.3-0.1 5.5-2.7 5.2-2-0.2-2.9-0.9-3.3-2.7-0.4-1.9-1.3-2.6-3.3-2.8-2.2-0.2-2.9 0.4-3.9 2.8-1.2 2.7-1.7 3-10.8 3v-12h4.5c2.6 0 4.6 0.5 4.8 1.1 0.1 0.8 1.1 0.7 3.2-0.5 1.7-0.8 4-1.6 5.3-1.6zm-394.5 0.9c4.1 0 4.2 0.1 6.5 5.3 1.2 2.9 2.2 5.6 2.2 6 0 0.4-1.8 0.8-4 0.8-3.9 0-4.1-0.2-6.5-5.8-1.4-3.2-2.5-5.9-2.5-6 0-0.1 1.9-0.3 4.3-0.3zm27.7 0.1l-2.4 5.7c-2.3 5.6-2.5 5.8-11.1 6.5l0.8-2.9c0.5-1.6 1.5-4.3 2.3-6.1 1.2-3 1.7-3.2 10.4-3.2zm198 0h9v12h-9zm107 0h9v12h-9zm-102.5-11c4.5 0 4.5 0 4.5 3.5 0 3.4 0 3.5-4.5 3.5-4.5 0-4.5-0.1-4.5-3.5 0-3.5 0-3.5 4.5-3.5zm107 0c4.5 0 4.5 0 4.5 3.5 0 3.4 0 3.5-4.5 3.5-4.5 0-4.5-0.1-4.5-3.5 0-3.5 0-3.5 4.5-3.5zm-462.5-335c51.7 0 53.6 0 56.8 2 1.7 1.1 3.7 3.1 4.2 4.5 0.6 1.5 1 22.6 1 56 0 45.5-0.2 53.9-1.5 56.5-0.8 1.7-3 3.6-5 4.5-3 1.2-11.6 1.5-56 1.5-44.4 0-53-0.3-55.7-1.5-1.8-0.9-4-2.5-4.8-3.8-1.3-1.9-1.5-10.1-1.8-55.2-0.2-41.4 0-53.9 1-57 1-3 2.2-4.5 4.8-5.8 3.2-1.6 8.1-1.7 57-1.7zm-42 104h83v-83h-83zm393.5-104.1c31.7 0 54.2 0.4 56 1 1.7 0.5 3.9 2.2 5 3.8 1.9 2.7 2 4.4 2 57.4 0 46.6-0.2 54.9-1.5 57.2-0.8 1.5-3 3.4-4.7 4.2-2.8 1.2-11.9 1.5-55.8 1.5-44.4 0-53-0.3-56-1.5-2-0.9-4.1-2.8-5-4.5-1.3-2.6-1.5-11-1.5-56.5 0-33.4 0.4-54.5 1-56 0.6-1.4 2.5-3.4 4.3-4.5 3.1-2 5-2 56.2-2.1zm-40.5 104.1h83v-83h-83z"/>
</svg>