<svg width="500" height="235" viewBox="0 0 500 235" fill="none" xmlns="http://www.w3.org/2000/svg">
<g clip-path="url(#clip0_3267_19029)">
<path fill-rule="evenodd" clip-rule="evenodd" d="M13.7736 68.2469C32.8576 58.7087 54.9286 51.4729 77.3316 43.5793C89.6117 39.3036 99.9004 34.6989 112.181 30.7521C114.836 29.9299 120.81 29.4365 122.801 27.792C124.461 26.312 122.967 24.0096 124.627 22.2007C128.443 24.0096 132.592 28.9432 129.937 33.0544C135.745 45.2238 140.226 59.6954 144.374 71.5359C145.038 73.1804 146.698 74.9894 147.527 77.1272C148.523 79.594 148.523 83.0474 149.519 86.0075C150.017 87.3232 151.178 88.6388 151.51 90.1188C152.008 91.7633 151.676 93.7367 152.174 95.5457C154.663 105.248 159.144 115.444 161.467 123.338C161.965 124.982 161.467 127.285 162.463 128.6C165.45 133.205 173.249 128.107 177.398 130.245C174.743 133.698 169.93 131.889 165.782 134.849C164.288 136.001 165.782 138.303 163.956 139.29C162.961 137.81 162.629 135.672 160.969 134.849C150.348 138.138 139.064 141.921 126.95 146.854C110.853 153.268 93.0966 158.859 77.4975 166.259C74.1786 167.904 71.3575 171.029 67.8726 172.509C63.0601 174.646 56.92 176.291 52.4394 178.758C47.7929 181.224 44.308 183.691 39.9934 179.251C40.1593 175.14 47.7929 175.798 48.4567 171.851C46.4653 166.259 43.4783 160.833 41.4869 154.748C40.8231 152.61 40.989 150.143 40.3253 147.841C38.002 139.618 31.53 132.383 32.5257 125.805C31.696 123.996 30.3684 123.667 29.3727 122.187C27.2154 106.893 12.9439 90.2833 9.62496 74.9893C6.80385 74.3315 2.48921 79.7584 0 76.4694C0.165948 73.5093 3.81679 73.8382 5.64222 72.1937C7.79954 70.2203 6.47196 67.7535 8.29738 65.7801C10.7866 65.1223 11.4504 68.7402 13.7736 68.2469ZM92.1009 76.6339C90.4414 66.4379 85.9608 58.2154 79.4889 51.6374C77.1656 50.8151 73.8467 50.6507 71.0256 52.953C69.0342 61.9977 73.6807 76.9628 80.4846 86.0075C82.4759 88.8032 87.1225 90.7766 84.3014 94.2301C76.6678 89.1321 68.8682 82.2252 61.4006 76.1405C55.0946 71.0425 47.1291 66.7668 38.4998 74.0026C37.6701 76.4694 39.6615 79.1006 40.9891 81.8963C50.9459 90.1188 61.0687 95.3812 73.6807 96.8613C77.1656 97.1902 81.8122 96.6968 84.6333 99.8214C82.6419 104.426 77.1656 100.808 73.3488 101.137C71.8553 101.301 70.1958 102.124 68.2044 102.453C66.2131 102.782 63.7239 102.453 61.5665 103.11C51.6097 105.906 30.3684 115.609 35.8447 123.173C37.836 125.805 46.7972 125.147 52.2735 123.502C62.5622 120.378 70.8596 115.938 78.4932 112.649C79.4889 111.004 83.8035 107.222 85.9608 108.866C86.1268 114.622 78.991 116.266 75.3402 120.049C72.3531 123.173 70.8596 126.791 68.2044 129.423C65.3833 135.672 60.4049 144.881 60.9028 152.61C61.8984 166.588 74.6764 151.952 77.4975 148.334C80.1527 141.263 85.463 135.507 87.1225 127.778C88.1182 122.844 86.4587 116.76 90.9393 112.977C93.0966 118.569 91.769 125.311 94.0923 131.889C96.4155 138.303 102.556 145.539 106.206 148.499C108.032 148.499 109.857 148.005 112.181 147.019C113.674 142.907 114.836 137.316 113.342 132.712C111.517 127.285 105.875 121.858 102.058 116.924C101.062 115.773 100.564 113.964 99.5685 112.649C97.7431 110.346 93.5944 107.879 96.4155 104.919C99.4026 105.742 101.726 108.537 103.551 112.155C110.853 119.391 118.653 125.476 127.78 128.436C133.754 128.271 143.545 132.218 147.693 125.311C146.2 119.555 141.221 116.595 137.073 114.129C129.937 109.853 117.657 105.742 110.355 104.59C108.198 104.262 105.045 105.577 104.381 102.124C110.687 99.9859 118.653 101.466 127.116 98.6703C133.256 96.6968 140.558 92.5856 143.379 89.2966C147.03 85.1853 145.868 78.4428 140.226 77.6206C134.086 76.7983 121.806 80.5807 114.504 84.6919C108.032 88.3099 105.045 95.3812 99.4026 96.039C97.9091 94.0656 99.7345 91.4344 102.887 90.6122C109.028 82.7185 117.657 75.9761 120.644 66.9313C120.644 61.9977 123.797 53.7752 117.159 51.3085C115.168 51.3085 112.678 52.7885 110.355 53.6108C101.394 62.82 97.9091 74.0026 95.2539 85.5142C95.7517 87.981 97.0793 90.7766 94.5901 91.9278C90.2755 88.6388 92.9306 82.0607 92.1009 76.6339Z" fill="white"/>
<path fill-rule="evenodd" clip-rule="evenodd" d="M94.5902 91.7635C97.2454 90.6123 95.7519 87.8166 95.254 85.3499C97.9092 73.8383 101.394 62.6557 109.691 53.6109C112.015 52.7886 114.504 51.3086 116.495 51.3086C123.133 53.7754 119.98 61.9979 119.98 66.9314C116.993 76.1406 108.364 82.8831 102.224 90.6123C99.0708 91.4346 97.2454 94.0658 98.7389 96.0392C104.215 95.3814 107.368 88.4744 113.84 84.6921C121.142 80.5808 133.422 76.7984 139.562 77.6207C145.038 78.443 146.366 85.1854 142.715 89.2967C139.894 92.5857 132.592 96.697 126.452 98.6704C117.989 101.466 110.023 99.986 103.717 102.124C104.215 105.577 107.534 104.262 109.691 104.591C116.993 105.742 129.273 109.853 136.409 114.129C140.558 116.596 145.536 119.391 147.03 125.311C142.715 132.218 133.09 128.272 127.116 128.436C117.989 125.476 110.189 119.391 102.888 112.155C101.062 108.537 98.9049 105.577 95.7519 104.92C92.9307 107.715 97.0794 110.346 98.9049 112.649C99.9005 113.964 100.564 115.773 101.394 116.924C105.211 121.858 110.853 127.285 112.679 132.712C114.338 137.152 113.01 142.908 111.517 147.019C109.36 148.006 107.368 148.499 105.543 148.499C101.892 145.539 95.7518 138.303 93.4286 131.889C91.1053 125.311 92.267 118.404 90.2756 112.978C85.9609 116.76 87.6204 123.009 86.4588 127.778C84.7993 135.343 79.489 141.263 76.8338 148.334C73.8468 151.952 61.0688 166.589 60.2391 152.61C59.7412 144.881 64.7197 135.672 67.5408 129.423C70.3619 126.791 71.6895 123.174 74.6765 120.049C78.3274 116.267 85.4631 114.622 85.2972 108.866C83.1398 107.222 78.8252 111.004 77.8295 112.649C70.1959 115.938 61.8985 120.542 51.6098 123.502C46.1335 125.147 37.0064 125.969 35.181 123.174C29.7047 115.609 50.946 105.906 60.9029 103.111C63.0602 102.453 65.5494 102.782 67.5408 102.453C69.5321 102.124 71.1916 101.302 72.6851 101.137C76.5019 100.808 81.9782 104.426 83.9696 99.8215C81.1485 96.697 76.5019 97.3548 73.017 96.8614C60.9029 95.7103 50.6141 90.4479 40.6573 82.2253C39.3297 79.2652 37.3383 76.7984 38.168 74.3317C46.9633 67.0959 54.7628 71.3716 61.0688 76.4695C68.5364 82.3898 76.17 89.4611 83.9696 94.5591C86.7907 91.1057 82.3101 89.1322 80.1528 86.3366C73.3489 77.1273 68.7024 62.3268 70.6938 53.282C73.3489 50.9797 76.8338 50.9797 79.1571 51.9664C85.629 58.5444 90.1096 66.6025 91.7691 76.9629C92.9307 82.0609 90.2756 88.6389 94.5902 91.7635Z" fill="#0655CD"/>
<path fill-rule="evenodd" clip-rule="evenodd" d="M461.5 65.2867C465.483 80.4162 457.351 96.2034 459.675 112.977C460.338 118.075 463.325 123.502 462.164 129.587C459.177 135.014 450.05 133.205 446.897 129.258C441.088 121.858 439.097 98.0124 441.088 83.8696C441.42 80.9095 443.246 78.1139 443.246 75.4827C443.246 73.0159 441.088 70.7136 442.416 68.9046C443.744 67.4246 446.067 67.589 448.224 66.7668C451.875 65.2867 456.356 61.5044 461.5 65.2867ZM369.731 129.916C368.735 124.489 366.744 114.951 366.412 108.208C366.246 105.413 367.906 100.808 368.237 98.1769C369.067 92.9144 367.574 86.9942 368.569 81.8962C368.901 80.4162 369.731 78.7717 370.063 77.1272C371.225 72.3581 371.556 67.7535 375.539 65.9445C378.692 64.6289 385.828 64.7934 387.156 68.4113C387.985 74.3315 384.998 77.9494 385.662 82.554C388.649 81.8962 389.479 78.6072 390.806 76.7983C394.457 71.8648 399.768 64.7934 407.235 63.4778C419.349 61.5044 424.66 76.9627 425.821 86.9942C426.983 96.8613 424.66 110.511 424.328 120.871C424.162 126.133 424.162 134.356 419.515 134.192C417.524 134.192 415.698 130.574 415.533 128.765C415.201 125.311 416.86 120.542 417.026 115.773C417.524 107.551 417.69 97.848 416.362 89.7899C415.698 85.8431 413.375 80.5806 409.89 80.4162C405.41 80.2517 400.597 88.1454 398.274 92.2566C395.619 96.8612 392.798 102.124 390.64 107.715C389.313 111.168 387.653 115.938 386.99 118.898C386.492 120.871 385.994 123.502 385.828 125.805C385.662 128.271 386.492 130.08 385.496 131.56C383.007 135.672 372.718 133.534 369.731 129.916ZM320.279 76.7983C316.96 79.7584 312.977 83.7052 310.488 87.652C309.326 89.6254 307.501 92.9144 306.837 94.5589C306.505 95.2167 306.837 96.3679 306.505 97.3546C305.177 101.466 302.854 109.853 303.518 114.293C304.846 123.502 320.113 118.404 323.929 115.28C328.41 111.662 334.716 98.9991 338.201 92.2566C341.188 86.9942 344.009 81.7318 344.009 74.9893C344.009 69.2335 341.022 67.2601 336.044 66.7668C329.738 68.5757 325.423 72.1937 320.279 76.7983ZM336.873 115.773C334.716 115.773 334.882 118.075 334.384 119.72C329.738 126.627 326.419 132.711 317.955 134.192C298.54 137.481 289.412 124.653 293.561 106.728C297.544 89.9543 310.488 71.3714 325.921 64.1356C331.065 61.6688 343.179 58.2153 348.822 62.9844C352.472 66.109 354.132 74.6604 352.472 81.7318C351.975 83.8696 350.481 88.1454 349.485 90.7766C348.822 92.5855 347.66 94.7234 346.664 96.5323C345.005 99.4925 341.852 100.808 342.018 105.577C342.184 108.537 344.673 109.359 345.669 112.155C346.166 113.306 345.503 114.786 346.001 116.102C346.664 118.075 348.822 119.391 349.983 121.2C350.979 122.844 351.145 124.489 351.809 125.476C353.302 127.285 357.285 127.614 357.285 130.245C357.285 136.001 342.848 133.698 339.86 131.067C335.546 127.449 339.529 121.035 336.873 115.773ZM221.872 72.1937C219.217 70.5491 217.889 67.7535 214.57 66.7668C211.915 67.589 209.592 65.6156 207.268 65.9445C205.277 66.109 199.469 69.7269 197.809 71.0425C194.158 74.0026 190.674 79.1006 190.176 84.6919C189.678 90.7766 189.844 99.4925 191.337 105.577C192.167 109.195 197.312 114.129 200.133 116.76C203.783 120.049 208.098 124.325 212.081 124.653C214.404 124.818 215.732 122.68 218.221 123.996C219.383 127.12 216.893 130.409 215.234 132.711C213.574 135.178 211.583 138.138 209.426 139.618C203.452 139.618 197.477 139.783 193.495 136.823C190.508 134.52 187.852 130.409 184.699 127.12C182.708 124.982 179.555 123.338 178.559 122.022C177.398 120.542 176.9 117.253 175.572 114.786C174.743 113.306 173.083 111.497 172.917 110.182C171.424 103.604 174.411 93.9011 175.572 89.6254C175.904 88.6387 175.572 87.3231 175.904 86.6653C176.402 85.5142 177.73 84.0341 178.725 82.3896C184.534 71.5358 196.482 62.4911 209.592 59.3665C215.898 57.8864 224.195 60.8466 224.859 66.2734C224.859 69.398 223.531 70.878 221.872 72.1937ZM461.5 31.2454C464.155 34.5345 464.155 41.4414 461.5 44.5659C457.683 49.0061 444.407 47.1972 441.918 43.0859C440.591 31.4099 451.543 30.4232 461.5 31.2454ZM499.668 135.178C499.336 135.178 499.336 135.343 499.336 135.507C493.86 138.138 484.567 133.863 481.414 130.08C477.763 125.805 478.759 121.364 479.256 114.129C479.588 109.36 478.427 104.097 478.593 99.9858C478.759 95.7101 480.086 91.4344 479.422 87.652C479.09 84.8564 477.597 82.2251 477.597 79.1006C477.431 75.976 478.427 73.3448 478.759 70.0558C480.252 59.5309 478.427 49.6639 479.091 38.6457C479.588 31.2454 478.925 23.0229 478.427 14.4715C478.261 10.5247 477.929 2.30212 479.92 1.15097C481.414 0.328715 483.571 1.47987 485.396 1.47987C489.545 1.47987 496.349 -1.15134 498.174 1.15097C499.004 2.13767 498.174 3.61773 498.174 6.57784C498.174 9.53795 498.838 16.6093 498.838 20.2272C498.838 23.1874 497.843 25.3252 497.843 27.4631C497.843 29.272 498.672 31.081 498.838 32.8899C499.17 38.6457 497.013 43.7437 497.345 48.8417C497.511 51.4729 498.34 54.433 498.506 57.2286C498.838 62.3266 497.511 68.7402 497.843 74.496C498.009 78.1139 499.004 81.4029 498.838 84.5275C498.672 87.3231 497.511 89.6254 497.677 92.0922C497.843 94.8878 499.668 97.6835 499.834 100.808C500 103.11 499.17 105.084 498.838 107.386C498.174 116.595 500.166 126.956 499.668 135.178ZM227.348 105.248C224.527 95.8745 229.007 85.5142 233.488 78.2783C237.969 71.0425 245.436 63.9711 251.41 61.3399C255.393 59.6954 261.533 58.2153 266.346 59.531C267.341 59.8599 268.503 61.011 269.997 61.9977C275.639 65.4512 278.792 68.4113 281.281 75.3182C282.277 78.2783 283.106 81.2384 284.268 85.0208C285.43 88.9676 286.923 94.5589 286.425 99.8214C286.259 101.301 285.098 102.453 284.932 104.097C284.766 105.248 285.43 106.728 285.264 108.373C284.932 111.497 281.779 115.938 279.787 118.898C275.971 124.489 272.486 129.094 266.346 132.876C261.367 135.836 255.227 136.658 248.091 136.165C239.462 135.672 231.995 128.6 228.842 122.022C226.518 117.089 224.361 110.346 227.348 105.248ZM258.712 127.614C243.445 129.094 240.292 114.786 242.615 101.63C242.947 99.4925 243.611 96.5323 244.109 95.0523C245.104 92.4211 248.091 90.4477 249.917 87.4876C251.908 84.1986 252.904 80.7451 255.725 78.7717C258.878 76.3049 264.686 74.9893 268.835 74.496C274.975 73.8382 278.46 78.1139 279.787 84.1986C280.783 88.9676 280.949 97.1902 279.787 101.795C279.29 103.768 277.298 106.564 276.137 109.359C272.486 117.582 267.341 124.16 258.712 127.614Z" fill="white"/>
<path d="M191.006 150.472C190.674 150.472 190.342 150.308 189.844 150.308C189.513 150.308 189.015 150.308 188.849 150.308C188.185 150.308 187.687 150.308 187.189 150.472C186.691 150.637 186.36 150.801 186.028 151.13C185.696 151.459 185.53 151.788 185.364 152.281C185.198 152.775 185.032 153.268 185.032 154.09V156.228H189.844V158.201H185.032V170.7H182.377V158.201H179.556V156.228H182.377V153.926C182.377 152.939 182.543 151.952 182.875 151.294C183.207 150.637 183.538 149.979 184.202 149.486C184.7 148.992 185.364 148.663 186.194 148.499C186.857 148.334 187.687 148.17 188.517 148.17C189.015 148.17 189.513 148.17 190.01 148.17C190.508 148.17 190.84 148.334 191.006 148.334V150.472Z" fill="white"/>
<path d="M221.042 171.357C220.212 171.357 219.383 171.193 218.719 171.029C218.055 170.864 217.391 170.7 216.893 170.371C216.396 170.042 215.898 169.713 215.566 169.22C215.234 168.891 214.902 168.397 214.736 167.904C214.57 167.575 214.404 167.082 214.404 166.753C214.404 166.26 214.238 165.766 214.238 165.273V156.228H216.893V165.108C216.893 165.931 217.059 166.588 217.225 167.082C217.557 167.74 217.889 168.233 218.553 168.562C219.217 168.891 219.88 169.055 220.876 169.055C221.872 169.055 222.702 168.891 223.365 168.397C224.029 168.068 224.361 167.411 224.693 166.753C224.859 166.26 225.025 165.602 225.025 164.944V156.228H227.68V165.273C227.68 165.766 227.68 166.26 227.514 166.588C227.514 167.082 227.348 167.411 227.182 167.74C227.016 168.233 226.684 168.726 226.352 169.055C226.021 169.549 225.523 169.877 225.025 170.206C224.527 170.535 223.863 170.7 223.199 170.864C222.702 171.193 222.038 171.357 221.042 171.357Z" fill="white"/>
<path d="M257.385 158.366C257.717 158.037 258.048 157.708 258.38 157.379C258.712 157.051 259.21 156.886 259.542 156.557C260.04 156.393 260.538 156.228 261.036 156.064C261.533 155.899 262.197 155.899 262.861 155.899C263.525 155.899 264.355 156.064 265.018 156.228C265.682 156.393 266.18 156.722 266.678 157.051C267.176 157.544 267.508 158.037 267.839 158.695C268.171 159.353 268.171 160.175 268.171 161.162V171.029H265.516V161.655C265.516 160.34 265.184 159.517 264.686 158.86C264.189 158.366 263.359 158.037 262.363 158.037C261.533 158.037 260.538 158.202 259.708 158.695C258.878 159.188 258.048 159.846 257.551 160.504V170.864H254.896V156.228H256.887L257.385 158.366Z" fill="white"/>
<path d="M294.391 163.793C294.391 162.806 294.557 161.819 294.723 161.161C294.888 160.339 295.22 159.681 295.552 159.188C295.884 158.53 296.382 158.037 296.88 157.708C297.378 157.379 297.876 157.05 298.373 156.721C298.871 156.392 299.369 156.228 300.033 156.228C300.531 156.063 301.029 156.063 301.526 156.063C302.522 156.063 303.352 156.228 304.182 156.557C304.845 156.886 305.509 157.215 306.173 157.872V148.828H308.828V171.193H306.837L306.339 169.548C306.173 169.713 305.841 170.042 305.675 170.206C305.343 170.371 305.011 170.7 304.679 170.864C304.347 171.028 303.85 171.193 303.352 171.357C302.854 171.522 302.356 171.522 301.692 171.522C300.863 171.522 299.867 171.357 299.037 171.028C298.207 170.7 297.378 170.371 296.714 169.713C296.05 169.055 295.552 168.397 295.054 167.411C294.557 166.259 294.391 165.108 294.391 163.793ZM297.212 163.793C297.212 164.615 297.378 165.437 297.544 166.095C297.71 166.753 298.041 167.411 298.539 167.904C298.871 168.397 299.369 168.726 300.033 169.055C300.531 169.384 301.36 169.384 302.024 169.384C302.522 169.384 303.02 169.384 303.518 169.22C304.016 169.055 304.347 168.891 304.679 168.726C305.011 168.562 305.343 168.233 305.675 168.068C306.007 167.904 306.173 167.575 306.339 167.411V159.681C305.841 159.188 305.177 158.695 304.513 158.53C303.85 158.201 303.02 158.037 302.19 158.037C301.692 158.037 301.194 158.201 300.531 158.366C300.033 158.53 299.535 158.859 299.037 159.352C298.539 159.846 298.207 160.339 297.876 161.161C297.378 161.655 297.212 162.641 297.212 163.793Z" fill="white"/>
<path d="M345.669 169.22C345.337 169.549 345.171 169.713 344.839 169.878C344.507 170.207 344.175 170.371 343.677 170.535C343.179 170.7 342.847 170.864 342.184 171.029C341.686 171.193 341.188 171.193 340.524 171.193C339.694 171.193 339.031 171.029 338.367 170.864C337.703 170.7 337.205 170.371 336.707 169.878C336.21 169.549 335.878 168.891 335.546 168.398C335.214 167.74 335.214 167.082 335.214 166.424C335.214 165.766 335.38 165.109 335.712 164.451C336.044 163.957 336.376 163.464 336.873 162.971C337.371 162.642 338.035 162.313 338.699 161.984C339.363 161.82 340.192 161.655 341.188 161.655C342.018 161.655 342.847 161.655 343.511 161.82C344.175 161.984 344.839 162.148 345.503 162.313V161.326C345.503 160.997 345.503 160.504 345.337 160.339C345.337 160.011 345.171 159.682 345.005 159.517C344.673 159.024 344.175 158.695 343.511 158.366C342.847 158.037 342.018 157.873 340.856 157.873C340.026 157.873 339.197 157.873 338.533 158.037C337.869 158.202 337.039 158.366 336.375 158.531V156.557C336.707 156.393 337.039 156.393 337.371 156.228C337.703 156.064 338.201 156.064 338.533 155.899C338.865 155.899 339.363 155.735 339.86 155.735C340.358 155.735 340.69 155.735 341.188 155.735C342.847 155.735 344.175 156.064 345.171 156.557C346.166 157.05 346.996 157.708 347.494 158.695C347.66 159.024 347.826 159.353 347.826 159.846C347.826 160.175 347.992 160.668 347.992 161.162V170.864H345.835L345.669 169.22ZM345.503 164.451C345.005 164.286 344.507 164.286 343.677 164.122C343.013 163.957 342.184 163.957 341.52 163.957C340.358 163.957 339.528 164.122 338.865 164.615C338.201 165.109 337.869 165.766 337.869 166.589C337.869 167.082 337.869 167.411 338.035 167.74C338.201 168.069 338.367 168.398 338.699 168.562C339.031 168.726 339.363 168.891 339.694 169.055C340.026 169.22 340.524 169.22 340.856 169.22C341.354 169.22 342.018 169.22 342.516 169.055C343.013 168.891 343.511 168.726 343.843 168.562C344.175 168.398 344.507 168.233 344.839 167.904C345.171 167.74 345.337 167.575 345.503 167.411V164.451Z" fill="white"/>
<path d="M382.343 155.899C383.173 155.899 383.837 155.899 384.667 156.064C385.33 156.228 385.994 156.393 386.492 156.722V158.695C385.828 158.366 385.164 158.202 384.501 158.202C383.837 158.037 383.339 158.037 382.675 158.037C382.011 158.037 381.348 158.202 380.684 158.366C380.02 158.531 379.522 158.86 378.858 159.353C378.361 159.846 377.863 160.34 377.531 161.162C377.199 161.984 377.033 162.806 377.033 163.957C377.033 164.78 377.199 165.438 377.365 166.095C377.531 166.753 377.863 167.411 378.361 167.904C378.858 168.398 379.356 168.727 380.186 169.055C380.85 169.384 381.68 169.549 382.675 169.549C383.339 169.549 384.003 169.549 384.667 169.384C385.33 169.22 385.994 169.055 386.658 168.891V170.864C386.492 171.029 386.16 171.029 385.828 171.193C385.496 171.358 385.164 171.358 384.833 171.522C384.501 171.522 384.003 171.687 383.671 171.687C383.173 171.687 382.841 171.687 382.343 171.687C381.182 171.687 380.186 171.522 379.19 171.193C378.195 170.864 377.365 170.371 376.535 169.878C375.871 169.22 375.208 168.562 374.876 167.575C374.378 166.589 374.212 165.438 374.212 164.286C374.212 163.3 374.378 162.477 374.544 161.655C374.71 160.833 375.042 160.175 375.539 159.682C375.871 159.024 376.369 158.531 376.867 158.202C377.365 157.873 377.863 157.544 378.527 157.215C379.19 156.886 379.688 156.722 380.352 156.722C381.182 155.899 381.68 155.899 382.343 155.899Z" fill="white"/>
<path d="M412.878 150.144H415.533V152.939H412.878V150.144ZM412.878 156.228H415.533V170.864H412.878V156.228Z" fill="white"/>
<path d="M457.351 163.628C457.351 164.779 457.185 165.766 456.853 166.753C456.521 167.74 456.024 168.562 455.36 169.22C454.696 169.877 453.866 170.371 452.871 170.864C451.875 171.193 450.879 171.357 449.718 171.357C448.556 171.357 447.394 171.193 446.399 170.864C445.403 170.535 444.573 170.042 443.909 169.22C443.246 168.562 442.748 167.74 442.416 166.753C442.084 165.766 441.918 164.779 441.918 163.628C441.918 162.477 442.084 161.49 442.416 160.504C442.748 159.517 443.246 158.695 443.909 158.037C444.573 157.379 445.403 156.886 446.399 156.392C447.394 156.064 448.39 155.899 449.552 155.899C450.713 155.899 451.875 156.064 452.871 156.392C453.866 156.721 454.696 157.215 455.36 158.037C456.024 158.695 456.521 159.517 456.853 160.504C457.185 161.326 457.351 162.477 457.351 163.628ZM454.53 163.628C454.53 162.806 454.364 161.984 454.198 161.162C453.866 160.504 453.534 159.846 453.202 159.353C452.705 158.859 452.207 158.53 451.709 158.201C451.045 157.873 450.381 157.873 449.718 157.873C449.054 157.873 448.39 158.037 447.726 158.201C447.062 158.53 446.565 158.859 446.233 159.353C445.735 159.846 445.403 160.504 445.237 161.162C445.071 161.819 444.905 162.642 444.905 163.628C444.905 164.451 445.071 165.273 445.237 166.095C445.403 166.753 445.901 167.411 446.233 167.904C446.73 168.397 447.228 168.726 447.726 169.055C448.39 169.384 449.054 169.384 449.718 169.384C450.381 169.384 451.045 169.22 451.709 169.055C452.373 168.726 452.871 168.397 453.202 167.904C453.7 167.411 454.032 166.753 454.198 166.095C454.53 165.273 454.53 164.451 454.53 163.628ZM453.7 148.17L450.879 153.597H448.556L450.713 148.17H453.7Z" fill="white"/>
<path d="M486.061 158.366C486.392 158.037 486.724 157.708 487.056 157.379C487.388 157.051 487.886 156.886 488.218 156.557C488.716 156.393 489.214 156.228 489.711 156.064C490.209 155.899 490.873 155.899 491.537 155.899C492.201 155.899 493.03 156.064 493.694 156.228C494.358 156.393 494.856 156.722 495.354 157.051C495.851 157.544 496.183 158.037 496.515 158.695C496.847 159.353 496.847 160.175 496.847 161.162V171.029H494.192V161.655C494.192 160.34 493.86 159.517 493.362 158.86C492.864 158.366 492.035 158.037 491.039 158.037C490.043 158.037 489.213 158.202 488.384 158.695C487.554 159.188 486.724 159.846 486.226 160.504V170.864H483.571V156.228H485.563L486.061 158.366Z" fill="white"/>
<path d="M73.5144 225.297C70.6933 224.804 68.37 223.488 66.5446 221.186C64.5532 218.719 63.3916 215.595 63.3916 211.812C63.3916 208.359 64.2213 205.563 65.7149 203.261C67.2084 200.959 69.3657 199.314 72.0209 198.492C74.0122 197.834 76.1696 197.834 78.1609 198.492C80.1523 198.985 81.6458 199.972 82.6415 201.452L80.3183 202.932C79.6545 201.945 78.6588 201.452 77.1652 201.123C75.6717 200.794 74.1782 200.794 72.6847 201.288C71.0252 201.781 69.6976 202.603 68.7019 203.919C67.0424 205.892 66.2127 208.688 66.2127 211.977C66.2127 215.101 67.0424 217.568 68.7019 219.542C70.0295 221.186 71.8549 222.173 74.0122 222.666C75.6717 222.995 77.3312 222.831 78.6588 222.337C80.1523 221.844 80.982 220.857 81.4799 219.87L83.9691 220.857C83.3053 222.666 81.8118 223.982 79.6545 224.804C78.4928 225.297 77.1652 225.626 75.6717 225.626C75.0079 225.462 74.1782 225.297 73.5144 225.297Z" fill="white"/>
<path d="M87.2882 222.666C85.7946 221.022 85.1309 218.884 85.1309 216.417C85.1309 213.95 85.7946 211.812 87.2882 210.168C88.7817 208.523 90.6071 207.537 92.5985 207.537C94.5899 207.537 96.4153 208.359 97.9088 210.168C99.4024 211.977 100.066 213.95 100.066 216.417C100.066 218.884 99.2364 221.022 97.9088 222.666C96.4153 224.311 94.5899 225.297 92.5985 225.297C90.6071 225.297 88.7817 224.475 87.2882 222.666ZM89.1136 211.977C88.1179 213.128 87.6201 214.608 87.6201 216.417C87.6201 218.226 88.1179 219.542 89.1136 220.857C90.1093 222.173 91.2709 222.666 92.7645 222.666C94.092 222.666 95.4196 222.008 96.2493 220.857C97.245 219.706 97.7429 218.226 97.7429 216.417C97.7429 214.772 97.245 213.292 96.2493 211.977C95.2537 210.661 94.092 210.168 92.7645 210.168C91.2709 210.168 90.1093 210.826 89.1136 211.977Z" fill="white"/>
<path d="M116.163 225.297C116.163 221.515 115.831 218.39 115.167 215.759C114.171 211.977 112.678 210.168 110.355 210.168C108.695 210.168 107.368 211.319 106.372 213.457C105.21 216.088 104.546 220.035 104.546 225.297H102.057V224.804C102.057 216.417 101.725 210.826 101.228 208.03L103.717 207.537C103.883 208.359 104.049 209.839 104.215 211.977C105.874 209.181 108.031 207.701 110.355 207.701C112.346 207.701 114.006 208.523 115.333 210.332C117.49 213.128 118.652 218.226 118.652 225.462H116.163V225.297Z" fill="white"/>
<path d="M133.09 225.297C133.09 224.146 133.09 221.679 132.924 217.897C132.592 207.701 132.592 201.123 133.09 197.999L135.579 198.327C135.081 201.288 135.081 207.866 135.413 217.733C135.579 221.515 135.579 224.146 135.579 225.297H133.09Z" fill="white"/>
<path d="M140.06 224.311C138.732 223.324 138.068 221.844 138.068 220.035C138.068 218.555 138.732 217.239 140.06 216.253C141.387 215.266 143.047 214.773 145.204 214.773C147.693 214.773 150.017 215.759 152.008 217.733C152.174 216.91 152.174 216.417 152.174 216.088C152.174 213.128 151.012 211.484 148.523 210.661C147.361 210.332 146.034 210.332 144.706 210.661C143.379 210.99 142.383 211.648 141.885 212.306L139.728 210.826C140.558 209.675 141.885 208.688 143.711 208.195C145.536 207.701 147.361 207.537 149.187 208.195C150.846 208.688 152.174 209.675 153.17 210.99C154.165 212.306 154.663 214.115 154.663 216.088C154.663 217.568 154.331 219.048 153.667 220.528C154.331 222.173 154.663 223.817 154.663 225.626H152.174C152.174 224.969 152.008 224.146 151.842 223.16C149.685 225.133 147.195 226.12 144.54 226.12C142.715 225.791 141.221 225.297 140.06 224.311ZM142.051 218.062C141.055 218.555 140.724 219.213 140.724 220.035C140.724 221.022 141.055 221.844 141.719 222.337C142.383 222.831 143.379 223.16 144.706 223.16C145.702 223.16 146.698 222.995 147.859 222.502C149.021 222.008 150.017 221.186 150.846 220.199C150.514 219.706 150.183 219.377 149.851 219.048C148.689 217.897 147.03 217.239 145.204 217.239C143.877 217.239 142.881 217.404 142.051 218.062Z" fill="white"/>
<path d="M170.76 224.146V225.626H167.938C167.938 221.844 167.938 217.733 168.104 213.786C168.27 208.195 168.436 204.248 168.768 202.11C168.934 200.959 169.266 200.136 169.598 199.643C170.594 198.656 171.921 198.163 173.747 197.999C175.738 197.67 177.729 197.999 179.721 198.821C181.712 199.643 183.372 200.959 184.699 202.768C186.525 205.399 187.52 208.852 187.52 213.293C187.52 219.213 185.695 223.16 182.044 224.969C180.716 225.626 179.223 225.955 177.563 225.955C175.406 225.955 173.083 225.297 170.76 224.146ZM175.738 222.995C177.729 223.324 179.389 223.16 180.716 222.502C183.372 221.186 184.699 218.062 184.699 213.293C184.699 210.332 184.201 207.701 183.206 205.728C182.21 203.754 180.716 202.274 178.725 201.452C177.397 200.959 175.904 200.63 174.576 200.794C173.415 200.959 172.419 201.123 171.921 201.617C171.423 203.261 170.926 209.675 170.926 220.857C172.419 222.008 174.079 222.666 175.738 222.995Z" fill="white"/>
<path d="M192.831 225.298H190.176V224.804C190.176 216.088 190.508 210.168 191.171 207.044L193.661 207.537C192.997 210.333 192.831 216.088 192.831 224.64V225.298ZM191.669 203.097C191.337 202.768 191.171 202.274 191.171 201.781C191.171 201.288 191.337 200.959 191.669 200.466C192.001 200.137 192.499 199.972 192.997 199.972C193.495 199.972 193.993 200.137 194.324 200.466C194.656 200.794 194.822 201.288 194.822 201.781C194.822 202.274 194.656 202.768 194.324 203.097C193.993 203.426 193.495 203.59 192.997 203.59C192.499 203.59 192.001 203.426 191.669 203.097Z" fill="white"/>
<path d="M196.15 224.146L196.98 221.844C198.142 222.337 199.635 222.666 201.129 222.83C203.12 222.995 204.448 222.83 205.277 222.337C205.941 221.844 206.107 221.186 206.107 220.199C206.107 219.213 205.775 218.39 204.946 217.897C204.282 217.568 203.12 217.075 201.461 216.581C199.801 216.252 198.64 215.759 197.976 215.43C196.648 214.772 195.984 213.621 195.984 212.306C195.984 211.154 196.316 210.168 197.146 209.346C197.976 208.523 199.137 208.03 200.631 207.865C202.124 207.701 203.452 207.865 204.78 208.523C206.107 209.181 206.937 210.003 207.269 210.99L204.78 211.648C204.614 211.319 204.282 210.99 203.452 210.661C202.622 210.332 201.793 210.332 200.963 210.332C200.465 210.332 199.967 210.497 199.469 210.826C198.805 211.154 198.474 211.648 198.474 212.47C198.474 212.963 198.805 213.292 199.469 213.621C199.967 213.786 200.797 214.115 202.124 214.443C204.116 214.937 205.609 215.43 206.605 216.088C208.099 217.075 208.928 218.555 208.928 220.364C208.928 222.173 208.264 223.653 206.937 224.639C205.941 225.297 204.614 225.626 202.788 225.626C200.465 225.297 198.308 224.968 196.15 224.146Z" fill="white"/>
<path d="M215.4 224.968C213.575 224.475 212.247 223.324 211.251 221.844C210.256 220.364 209.758 218.555 209.758 216.417C209.758 213.95 210.422 211.977 211.915 210.332C213.077 209.017 214.404 208.194 216.23 207.865C217.889 207.537 219.217 207.701 220.544 208.194C221.872 208.688 222.702 209.51 223.2 210.661L220.876 211.648C220.71 211.154 220.047 210.826 219.217 210.497C218.387 210.168 217.557 210.168 216.562 210.332C215.566 210.497 214.736 210.99 214.072 211.648C212.911 212.799 212.247 214.443 212.247 216.417C212.247 218.226 212.745 219.706 213.575 220.857C214.238 221.679 215.068 222.173 216.064 222.502C217.059 222.83 218.055 222.83 219.051 222.666C220.047 222.502 220.544 222.173 220.876 221.844L222.868 223.324C222.536 223.817 221.872 224.311 220.876 224.804C219.881 225.133 218.885 225.462 217.889 225.462C217.225 225.297 216.23 225.133 215.4 224.968Z" fill="white"/>
<path d="M226.021 224.311C224.693 223.324 224.029 221.844 224.029 220.035C224.029 218.555 224.693 217.239 226.021 216.253C227.348 215.266 229.008 214.773 231.165 214.773C233.654 214.773 235.978 215.759 237.969 217.733C238.135 216.91 238.135 216.417 238.135 216.088C238.135 213.128 236.973 211.484 234.484 210.661C233.322 210.332 231.995 210.332 230.667 210.661C229.34 210.99 228.344 211.648 227.846 212.306L225.689 210.826C226.519 209.675 227.846 208.688 229.672 208.195C231.497 207.701 233.322 207.537 235.148 208.195C236.807 208.688 238.135 209.675 239.131 210.99C240.126 212.306 240.624 214.115 240.624 216.088C240.624 217.568 240.292 219.048 239.628 220.528C240.292 222.173 240.624 223.817 240.624 225.626H238.135C238.135 224.969 237.969 224.146 237.803 223.16C235.646 225.133 233.156 226.12 230.501 226.12C228.676 225.791 227.182 225.297 226.021 224.311ZM227.846 218.062C226.85 218.555 226.519 219.213 226.519 220.035C226.519 221.022 226.85 221.844 227.514 222.337C228.178 222.831 229.174 223.16 230.501 223.16C231.497 223.16 232.493 222.995 233.654 222.502C234.816 222.008 235.812 221.186 236.641 220.199C236.309 219.706 235.978 219.377 235.646 219.048C234.484 217.897 232.825 217.239 230.999 217.239C229.837 217.239 228.676 217.404 227.846 218.062Z" fill="white"/>
<path d="M242.781 235C242.616 231.382 242.45 227.435 242.284 223.324C242.118 219.706 242.118 216.911 242.284 214.773C242.45 211.813 242.781 210.004 243.445 209.346C244.441 208.524 245.769 207.866 247.262 207.701C248.922 207.537 250.415 207.701 251.909 208.359C253.402 209.017 254.564 210.004 255.393 211.319C256.223 212.635 256.555 214.115 256.555 215.759C256.555 219.871 255.393 222.666 252.904 224.311C250.913 225.627 248.092 225.627 244.939 224.475C245.105 228.422 245.271 231.876 245.437 234.836L242.781 235ZM251.577 222.009C253.236 221.022 254.066 218.884 254.066 215.759C254.066 213.293 253.07 211.648 250.913 210.662C249.917 210.333 248.922 210.004 247.926 210.168C246.93 210.168 245.934 210.497 245.271 210.99C244.939 212.306 244.773 215.759 244.939 221.68C247.594 222.995 249.917 223.16 251.577 222.009Z" fill="white"/>
<path d="M259.874 224.311C258.547 223.324 257.883 221.844 257.883 220.035C257.883 218.555 258.547 217.239 259.874 216.253C261.202 215.266 262.861 214.773 265.019 214.773C267.508 214.773 269.831 215.759 271.822 217.733C271.988 216.91 271.988 216.417 271.988 216.088C271.988 213.128 270.827 211.484 268.338 210.661C267.176 210.332 265.848 210.332 264.521 210.661C263.193 210.99 262.197 211.648 261.7 212.306L259.542 210.826C260.372 209.675 261.7 208.688 263.525 208.195C265.35 207.701 267.176 207.537 269.001 208.195C270.661 208.688 271.988 209.675 272.984 210.99C273.98 212.306 274.478 214.115 274.478 216.088C274.478 217.568 274.146 219.048 273.482 220.528C274.146 222.173 274.478 223.817 274.478 225.626H271.988C271.988 224.969 271.822 224.146 271.656 223.16C269.499 225.133 267.01 226.12 264.355 226.12C262.529 225.791 261.036 225.297 259.874 224.311ZM261.7 218.062C260.704 218.555 260.372 219.213 260.372 220.035C260.372 221.022 260.704 221.844 261.368 222.337C262.032 222.831 263.027 223.16 264.355 223.16C265.35 223.16 266.346 222.995 267.508 222.502C268.669 222.008 269.665 221.186 270.495 220.199C270.163 219.706 269.831 219.377 269.499 219.048C268.338 217.897 266.678 217.239 264.853 217.239C263.525 217.239 262.529 217.404 261.7 218.062Z" fill="white"/>
<path d="M281.447 224.968C279.621 224.475 278.294 223.324 277.298 221.844C276.303 220.364 275.805 218.555 275.805 216.417C275.805 213.95 276.468 211.977 277.796 210.332C278.958 209.017 280.451 208.194 282.111 207.865C283.77 207.537 285.098 207.701 286.425 208.194C287.753 208.688 288.583 209.51 289.08 210.661L286.757 211.648C286.591 211.154 286.093 210.826 285.098 210.497C284.268 210.168 283.438 210.168 282.443 210.332C281.447 210.497 280.617 210.99 279.953 211.648C278.792 212.799 278.128 214.443 278.128 216.417C278.128 218.226 278.626 219.706 279.456 220.857C280.119 221.679 280.949 222.173 281.945 222.502C282.94 222.83 283.936 222.83 284.932 222.666C285.927 222.502 286.425 222.173 286.757 221.844L288.749 223.324C288.417 223.817 287.753 224.311 286.757 224.804C285.762 225.133 284.766 225.462 283.77 225.462C283.272 225.297 282.443 225.133 281.447 224.968Z" fill="white"/>
<path d="M294.059 225.298H291.404V224.804C291.404 216.088 291.736 210.168 292.4 207.044L295.055 207.537C294.391 210.333 294.225 216.088 294.225 224.64V225.298H294.059ZM293.064 203.097C292.732 202.768 292.566 202.274 292.566 201.781C292.566 201.288 292.732 200.959 293.064 200.466C293.396 200.137 293.893 199.972 294.391 199.972C294.889 199.972 295.387 200.137 295.719 200.466C296.051 200.794 296.217 201.288 296.217 201.781C296.217 202.274 296.051 202.768 295.719 203.097C295.387 203.426 294.889 203.59 294.391 203.59C293.728 203.59 293.396 203.426 293.064 203.097Z" fill="white"/>
<path d="M306.173 225.297C304.846 225.297 303.684 224.968 302.523 224.475C301.029 223.817 299.867 222.83 299.038 221.515C298.208 220.199 297.876 218.719 297.876 217.075C297.876 212.963 299.038 210.003 301.527 208.523C303.684 207.208 306.339 207.208 309.492 208.359C309.326 204.741 309.16 201.123 308.994 197.998L311.484 197.834C311.65 201.452 311.816 205.399 311.982 209.51C312.147 213.128 312.147 215.924 311.982 218.061C311.816 221.022 311.484 222.83 310.82 223.488C309.824 224.804 308.331 225.297 306.173 225.297ZM309.326 221.844C309.658 220.528 309.824 217.075 309.658 211.154C306.837 209.839 304.514 209.674 303.02 210.661C301.361 211.648 300.531 213.786 300.531 217.075C300.531 219.541 301.527 221.186 303.684 222.173C304.68 222.666 305.676 222.83 306.671 222.666C307.667 222.666 308.497 222.502 309.326 221.844Z" fill="white"/>
<path d="M315.798 224.311C314.47 223.324 313.807 221.844 313.807 220.035C313.807 218.555 314.47 217.239 315.798 216.253C317.126 215.266 318.785 214.773 320.942 214.773C323.432 214.773 325.755 215.759 327.746 217.733C327.912 216.91 327.912 216.417 327.912 216.088C327.912 213.128 326.751 211.484 324.261 210.661C323.1 210.332 321.772 210.332 320.445 210.661C319.117 210.99 318.121 211.648 317.623 212.306L315.466 210.826C316.296 209.675 317.623 208.688 319.449 208.195C321.274 207.701 323.1 207.537 324.925 208.195C326.585 208.688 327.912 209.675 328.908 210.99C329.904 212.306 330.401 214.115 330.401 216.088C330.401 217.568 330.069 219.048 329.406 220.528C330.069 222.173 330.401 223.817 330.401 225.626H327.912C327.912 224.969 327.746 224.146 327.58 223.16C325.423 225.133 322.934 226.12 320.279 226.12C318.619 225.791 317.126 225.297 315.798 224.311ZM317.789 218.062C316.794 218.555 316.462 219.213 316.462 220.035C316.462 221.022 316.794 221.844 317.457 222.337C318.121 222.831 319.117 223.16 320.445 223.16C321.44 223.16 322.436 222.995 323.598 222.502C324.759 222.008 325.755 221.186 326.585 220.199C326.253 219.706 325.921 219.377 325.589 219.048C324.427 217.897 322.768 217.239 320.942 217.239C319.615 217.239 318.619 217.404 317.789 218.062Z" fill="white"/>
<path d="M340.524 225.297C339.196 225.297 338.035 224.968 336.873 224.475C335.38 223.817 334.218 222.83 333.388 221.515C332.558 220.199 332.227 218.719 332.227 217.075C332.227 212.963 333.388 210.003 335.877 208.523C338.035 207.208 340.69 207.208 343.843 208.359C343.677 204.741 343.511 201.123 343.345 197.998L345.834 197.834C346 201.452 346.166 205.399 346.332 209.51C346.498 213.128 346.498 215.924 346.332 218.061C346.166 221.022 345.834 222.83 345.17 223.488C344.175 224.804 342.515 225.297 340.524 225.297ZM343.677 221.844C344.009 220.528 344.175 217.075 344.009 211.154C341.188 209.839 338.864 209.674 337.371 210.661C335.711 211.648 334.882 213.786 334.882 217.075C334.882 219.541 335.877 221.186 338.035 222.173C339.03 222.666 340.026 222.83 341.022 222.666C342.017 222.666 342.847 222.502 343.677 221.844Z" fill="white"/>
<path d="M364.255 225.462H361.434V224.64C361.434 211.319 361.765 202.439 362.429 198.163L365.084 198.492C364.421 202.768 364.255 211.484 364.255 224.64V225.462Z" fill="white"/>
<path d="M382.841 225.297C382.841 221.515 382.509 218.39 381.845 215.759C380.849 211.977 379.356 210.168 377.032 210.168C375.373 210.168 374.045 211.319 373.05 213.457C371.888 216.088 371.224 220.035 371.224 225.297H368.735V224.804C368.735 216.417 368.403 210.826 367.905 208.03L370.394 207.537C370.56 208.359 370.726 209.839 370.892 211.977C372.552 209.181 374.709 207.701 377.032 207.701C379.024 207.701 380.683 208.523 382.011 210.332C384.168 213.128 385.33 218.226 385.33 225.462H382.841V225.297Z" fill="white"/>
<path d="M391.471 225.297H388.981C388.981 221.844 388.815 217.239 388.318 211.483C388.152 209.346 387.986 207.537 387.986 206.221C386.492 206.714 385.662 207.043 385.497 207.043L384.169 204.905C384.833 204.577 385.994 204.083 387.82 203.59C387.82 201.288 387.82 199.479 388.152 197.999L390.641 198.327C390.475 199.479 390.475 201.123 390.475 203.097C392.3 202.768 393.96 202.439 395.453 202.274L395.785 204.741C394.126 204.905 392.3 205.234 390.641 205.563C390.641 206.879 390.807 208.852 390.973 211.319C391.305 217.239 391.471 221.844 391.471 225.297Z" fill="white"/>
<path d="M402.091 224.968C400.1 224.311 398.606 223.324 397.611 221.679C396.449 220.199 395.951 218.226 395.951 215.924C395.951 213.786 396.615 212.141 397.943 210.497C399.104 209.181 400.598 208.359 402.423 207.865C404.249 207.372 405.742 207.537 407.236 208.194C408.729 208.852 409.891 209.839 410.72 211.319C411.218 212.141 411.218 212.963 410.72 213.786C409.725 216.088 405.908 218.061 399.104 219.87C399.934 221.35 401.261 222.173 402.589 222.666C403.917 222.995 405.244 223.159 406.738 222.83C408.231 222.502 409.061 222.008 409.559 221.186L411.716 222.502C411.218 223.324 410.223 223.982 408.895 224.639C407.567 225.133 406.24 225.462 404.746 225.462C404.083 225.297 403.087 225.133 402.091 224.968ZM403.087 210.332C401.759 210.661 400.764 211.319 399.934 212.141C398.938 213.128 398.44 214.444 398.44 215.924C398.44 216.252 398.44 216.746 398.44 217.239C401.261 216.581 403.419 215.759 405.244 214.937C407.07 214.115 408.231 213.292 408.563 212.47C407.733 210.99 406.406 210.168 404.58 210.168C404.083 210.168 403.585 210.168 403.087 210.332Z" fill="white"/>
<path d="M414.537 225.297C414.537 224.146 414.537 221.679 414.371 217.897C414.039 207.701 414.039 201.123 414.537 197.999L417.026 198.327C416.694 201.288 416.528 207.866 416.86 217.733C417.026 221.515 417.026 224.146 417.026 225.297H414.537Z" fill="white"/>
<path d="M425.822 224.968C423.83 224.311 422.337 223.324 421.341 221.679C420.179 220.199 419.682 218.226 419.682 215.924C419.682 213.786 420.345 212.141 421.673 210.497C422.835 209.181 424.328 208.359 426.154 207.865C427.979 207.372 429.639 207.537 430.966 208.194C432.46 208.852 433.621 209.839 434.451 211.319C434.949 212.141 434.949 212.963 434.451 213.786C433.455 216.088 429.639 218.061 422.835 219.87C423.664 221.35 424.826 222.173 426.486 222.666C427.813 222.995 429.141 223.159 430.634 222.83C432.128 222.502 432.957 222.008 433.455 221.186L435.613 222.502C435.115 223.324 434.119 223.982 432.791 224.639C431.464 225.133 430.136 225.462 428.643 225.462C427.813 225.297 426.817 225.133 425.822 224.968ZM426.817 210.332C425.49 210.661 424.494 211.319 423.664 212.141C422.669 213.128 422.171 214.444 422.171 215.924C422.171 216.252 422.171 216.746 422.171 217.239C424.992 216.581 427.149 215.759 428.975 214.937C430.8 214.115 431.962 213.292 432.294 212.47C431.464 210.99 430.136 210.168 428.311 210.168C427.813 210.168 427.315 210.168 426.817 210.332Z" fill="white"/>
<path d="M442.582 224.968C440.756 224.475 439.429 223.324 438.433 221.844C437.437 220.364 436.939 218.555 436.939 216.417C436.939 213.95 437.603 211.977 438.931 210.332C440.092 209.017 441.42 208.194 443.245 207.865C444.905 207.537 446.233 207.701 447.56 208.194C448.888 208.688 449.717 209.51 450.215 210.661L447.892 211.648C447.726 211.154 447.228 210.826 446.233 210.497C445.403 210.168 444.573 210.168 443.577 210.332C442.582 210.497 441.752 210.99 441.088 211.648C439.927 212.799 439.263 214.443 439.263 216.417C439.263 218.226 439.761 219.706 440.59 220.857C441.254 221.679 442.084 222.173 443.08 222.502C444.075 222.83 445.071 222.83 446.067 222.666C447.062 222.502 447.56 222.173 447.892 221.844L449.883 223.324C449.551 223.817 448.888 224.311 447.892 224.804C446.896 225.133 445.901 225.462 444.905 225.462C444.241 225.297 443.411 225.133 442.582 224.968Z" fill="white"/>
<path d="M456.19 225.297H453.701C453.701 221.844 453.535 217.239 453.037 211.483C452.871 209.346 452.705 207.537 452.705 206.221C451.212 206.714 450.382 207.043 450.216 207.043L448.889 204.905C449.552 204.577 450.714 204.083 452.54 203.59C452.54 201.288 452.54 199.479 452.871 197.999L455.361 198.327C455.195 199.479 455.195 201.123 455.195 203.097C457.02 202.768 458.68 202.439 460.173 202.274L460.505 204.741C458.846 204.905 457.02 205.234 455.361 205.563C455.361 206.879 455.527 208.852 455.693 211.319C456.024 217.239 456.19 221.844 456.19 225.297Z" fill="white"/>
<path d="M463.16 223.324C461.832 222.008 461.003 219.706 460.837 216.91C460.671 215.266 460.671 212.964 461.002 210.168C461.002 209.346 461.168 209.017 461.168 208.852H463.658C463.658 209.017 463.658 209.51 463.492 210.332C462.994 216.253 463.492 219.87 464.985 221.515C465.649 222.173 466.645 222.666 467.806 222.666C468.802 222.666 469.632 222.337 470.13 221.679C471.125 220.528 471.623 218.39 471.623 215.43C471.623 213.786 471.457 211.648 470.959 209.017C470.793 208.03 470.793 207.537 470.793 207.537H473.283C473.283 207.537 473.283 207.866 473.449 208.688C473.946 211.812 474.112 214.279 474.112 216.088C474.112 219.377 473.449 221.844 472.121 223.324C470.959 224.639 469.632 225.133 467.806 225.133C465.981 225.297 464.487 224.639 463.16 223.324Z" fill="white"/>
<path d="M477.431 224.311C476.103 223.324 475.439 221.844 475.439 220.035C475.439 218.555 476.103 217.239 477.431 216.253C478.758 215.266 480.418 214.773 482.575 214.773C485.064 214.773 487.388 215.759 489.379 217.733C489.545 216.91 489.545 216.417 489.545 216.088C489.545 213.128 488.383 211.484 485.894 210.661C484.732 210.332 483.405 210.332 482.077 210.661C480.75 210.99 479.754 211.648 479.256 212.306L477.099 210.826C477.929 209.675 479.256 208.688 481.082 208.195C482.907 207.701 484.733 207.537 486.558 208.195C488.217 208.688 489.545 209.675 490.541 210.99C491.536 212.306 492.034 214.115 492.034 216.088C492.034 217.568 491.702 219.048 491.039 220.528C491.702 222.173 492.034 223.817 492.034 225.626H489.545C489.545 224.969 489.379 224.146 489.213 223.16C487.056 225.133 484.567 226.12 481.911 226.12C480.086 225.791 478.592 225.297 477.431 224.311ZM479.256 218.062C478.426 218.555 477.929 219.213 477.929 220.035C477.929 221.022 478.261 221.844 478.924 222.337C479.588 222.831 480.584 223.16 481.911 223.16C482.907 223.16 483.903 222.995 485.064 222.502C486.226 222.008 487.222 221.186 488.051 220.199C487.72 219.706 487.388 219.377 487.056 219.048C485.894 217.897 484.235 217.239 482.409 217.239C481.248 217.239 480.252 217.404 479.256 218.062Z" fill="white"/>
<path d="M495.021 225.297C495.021 224.146 495.021 221.679 494.855 217.897C494.523 207.701 494.523 201.123 495.021 197.999L497.51 198.327C497.179 201.288 497.013 207.866 497.345 217.733C497.511 221.515 497.51 224.146 497.51 225.297H495.021Z" fill="white"/>
</g>
<defs>
<clipPath id="clip0_3267_19029">
<rect width="500" height="235" fill="white"/>
</clipPath>
</defs>
</svg>
