<svg width="170" height="391" viewBox="0 0 170 391" fill="none" xmlns="http://www.w3.org/2000/svg">
   <path fill-rule="evenodd" clip-rule="evenodd" d="M153.353 -54.101L158.316 -33.5468L158.443 -33.0197C163.449 -12.2958 173.294 28.4639 162.689 70.7529C157.749 90.451 148.41 110.478 139.071 130.505C128.19 153.841 117.308 177.176 113.385 199.992C106.329 242.06 122.947 282.358 139.565 322.656L139.937 323.558C156.857 364.144 173.777 404.729 175.096 446.481C176.594 488.22 162.491 531.125 155.439 552.578L148.388 574.031L117.364 576.35L117.364 576.349L-51.7098 588.992L-51.71 588.99L-81.7074 591.233L-93.3777 571.181C-105.048 551.128 -128.389 511.023 -133.397 469.546C-138.616 428.086 -125.503 385.255 -112.39 342.424L-112.104 341.472C-99.2955 298.974 -86.4873 256.475 -101.498 216.057C-109.75 194.152 -126.179 172.858 -142.608 151.565C-156.707 133.29 -170.807 115.016 -179.738 96.3553C-198.911 56.293 -194.054 14.4339 -191.584 -6.849L-191.521 -7.39027L-189.074 -28.4986L-91.9346 -35.7624L-91.9345 -35.7607L71.7937 -48.0038L71.7938 -48.0023L153.353 -54.101Z" fill="#C20E1A"/>
</svg>