<svg width="120" height="471" viewBox="0 0 120 471" fill="none" xmlns="http://www.w3.org/2000/svg">
<path fill-rule="evenodd" clip-rule="evenodd" d="M99.8239 -64.0521L106.546 -38.2119L106.718 -37.5493C113.498 -11.4958 126.832 39.7463 113.865 93.3347C107.825 118.296 96.127 143.762 84.4295 169.228C70.7994 198.901 57.1693 228.575 52.4894 257.45C44.0864 310.687 66.1318 361.209 88.1771 411.73L88.6706 412.861C111.109 463.739 133.548 514.617 135.922 567.285C138.527 619.933 121.066 674.37 112.336 701.589L103.606 728.807L63.7072 732.367L63.707 732.365L-153.737 751.764L-153.738 751.761L-192.317 755.203L-207.665 730.133C-223.013 705.062 -253.709 654.92 -260.829 602.676C-268.219 550.455 -252.032 496.131 -235.846 441.808L-235.492 440.601C-219.692 386.703 -203.892 332.806 -223.87 282.1C-234.848 254.622 -256.342 228.082 -277.836 201.542C-296.282 178.765 -314.729 155.989 -326.528 132.619C-351.858 82.4469 -346.284 29.518 -343.449 2.60681L-343.377 1.92243L-340.568 -24.7681L-215.638 -35.9133L-215.638 -35.911L-5.06774 -54.6963L-5.06758 -54.6945L99.8239 -64.0521Z" fill="#E4A71A"/>
</svg>
