<svg width="170" height="391" viewBox="0 0 170 391" fill="none" xmlns="http://www.w3.org/2000/svg">
<g clip-path="url(#clip0_3192_19032)">
<path fill-rule="evenodd" clip-rule="evenodd" d="M149.678 -56.1982L154.936 -35.7173L155.07 -35.1921C160.373 -14.5421 170.801 26.0723 160.804 68.509C156.147 88.2759 147.096 108.435 138.045 128.593C127.499 152.083 116.953 175.572 113.358 198.441C106.905 240.607 124.1 280.662 141.294 320.718L141.679 321.615C159.179 361.953 176.679 402.292 178.597 444.021C180.693 485.734 167.206 528.837 160.463 550.389L153.72 571.94L122.733 574.704L122.733 574.703L-46.1425 589.769L-46.1426 589.767L-76.1048 592.44L-88.0614 572.557C-100.018 552.673 -123.931 512.907 -129.534 471.507C-135.347 430.125 -122.85 387.111 -110.352 344.096L-110.079 343.14C-97.8815 300.463 -85.6839 257.785 -101.273 217.586C-109.838 195.802 -126.57 174.746 -143.303 153.69L-143.303 153.69C-157.663 135.62 -172.023 117.549 -181.221 99.0185C-200.966 59.2352 -196.71 17.3107 -194.546 -4.00538L-194.491 -4.5475L-192.346 -25.6888L-95.3208 -34.3446L-95.3207 -34.3429L68.2151 -48.9322L68.2153 -48.9308L149.678 -56.1982Z" fill="#39663A"/>
</g>
<defs>
<clipPath id="clip0_3192_19032">
<rect width="170" height="391" fill="white"/>
</clipPath>
</defs>
</svg>
