<svg width="637" height="626" viewBox="0 0 637 626" fill="none" xmlns="http://www.w3.org/2000/svg">
<g clip-path="url(#clip0_3866_22995)">
<path fill-rule="evenodd" clip-rule="evenodd" d="M1020.12 184.401L1003.68 218.306L1003.26 219.176C986.685 253.362 954.085 320.6 891.376 366.557C875.105 378.481 856.824 388.985 837.654 398.859L355.788 1080.61L300.352 1041.43L300.346 1041.43L254.671 1009.15L254.674 1009.15L15.2507 839.92L15.2493 839.922L-38.4209 801.988L-31.8541 761.104C-25.2873 720.219 -12.1537 638.451 27.9701 575.759C67.7838 512.848 134.588 469.013 201.392 425.179L202.869 424.2C268.872 380.474 334.876 336.749 359.922 264.074C373.334 224.554 374.707 176.525 376.079 128.495C377.257 87.2759 378.435 46.0567 387.223 10.2162C406.09 -66.7286 460.337 -118.667 487.918 -145.074L488.619 -145.746L515.971 -171.939L649.484 -77.5716L649.486 -77.5736L999.527 169.837L999.524 169.842L1020.12 184.401Z" fill="url(#paint0_linear_3866_22995)"/>
</g>
<defs>
<linearGradient id="paint0_linear_3866_22995" x1="871.623" y1="189.668" x2="326.515" y2="918.276" gradientUnits="userSpaceOnUse">
<stop offset="0.25" stop-color="#0655CD"/>
<stop offset="0.567708" stop-color="#0377D6"/>
<stop offset="0.776042" stop-color="#009DE0"/>
</linearGradient>
<clipPath id="clip0_3866_22995">
<rect width="637" height="626" fill="white"/>
</clipPath>
</defs>
</svg>
