<svg width="637" height="627" viewBox="0 0 637 627" fill="none" xmlns="http://www.w3.org/2000/svg">
<g clip-path="url(#clip0_3367_18966)">
<path fill-rule="evenodd" clip-rule="evenodd" d="M989.303 250.659L972.655 284.855L972.228 285.732C955.446 320.212 922.437 388.028 859.319 434.563C842.943 446.637 824.556 457.29 805.28 467.315L318.789 1155.61L263.353 1116.43L263.347 1116.43L217.671 1084.15L217.675 1084.15L-21.7495 914.919L-21.7515 914.922L-75.4218 876.988L-68.649 835.812C-61.8762 794.636 -48.3307 712.285 -7.79491 649.01C32.4307 585.516 99.6465 541.099 166.862 496.682L168.349 495.69C234.762 451.386 301.174 407.081 326.628 333.828C340.262 293.995 341.857 245.652 343.451 197.309C344.819 155.82 346.188 114.332 355.166 78.2222C374.441 0.69955 429.096 -51.8167 456.885 -78.518L457.591 -79.1971L485.15 -105.682L618.664 -11.3133L618.666 -11.316L968.707 236.094L968.704 236.1L989.303 250.659Z" fill="#009DE0"/>
</g>
<defs>
<clipPath id="clip0_3367_18966">
<rect width="637" height="627" fill="white"/>
</clipPath>
</defs>
</svg>
