<svg width="394" height="78" viewBox="0 0 394 78" fill="none" xmlns="http://www.w3.org/2000/svg">
<path d="M376.581 77.0582C377.718 77.842 379.274 77.5558 380.058 76.4191L392.83 57.8954C393.614 56.7587 393.328 55.2018 392.191 54.4181C391.054 53.6343 389.497 53.9205 388.714 55.0572L377.361 71.5227L360.895 60.1699C359.759 59.3862 358.202 59.6723 357.418 60.809C356.634 61.9457 356.92 63.5026 358.057 64.2863L376.581 77.0582ZM0.676818 1.92349C7.96389 20.2553 26.3242 45.1144 58.7554 57.7223C91.2523 70.3557 137.453 70.5284 200.088 40.2513L197.912 35.7497C136.164 65.5976 91.438 65.0634 60.5671 53.0621C29.6305 41.0352 12.1822 17.3315 5.32318 0.0765134L0.676818 1.92349ZM200.088 40.2513C261.929 10.358 304.087 10.0802 331.476 21.5649C358.863 33.0486 372.064 56.5326 375.541 75.4519L380.459 74.5481C376.734 54.2834 362.627 29.2052 333.41 16.9538C304.195 4.70351 260.453 5.51795 197.912 35.7497L200.088 40.2513Z" fill="#CC0F64"/>
</svg>
