<svg width="23" height="22" viewBox="0 0 23 22" fill="none" xmlns="http://www.w3.org/2000/svg">
<path d="M11.6734 1.98125C14.6142 1.98125 14.9625 1.99414 16.119 2.04571C17.1939 2.09299 17.7743 2.27349 18.1612 2.42391C18.6729 2.62161 19.0426 2.86228 19.4252 3.24477C19.8122 3.63157 20.0487 3.99687 20.2464 4.5083C20.3969 4.8951 20.5775 5.47959 20.6248 6.54972C20.6764 7.7101 20.6893 8.05822 20.6893 10.9936C20.6893 13.9332 20.6764 14.2813 20.6248 15.4374C20.5775 16.5118 20.3969 17.092 20.2464 17.4788C20.0487 17.9902 19.8079 18.3598 19.4252 18.7423C19.0383 19.1291 18.6729 19.3655 18.1612 19.5632C17.7743 19.7136 17.1896 19.8941 16.119 19.9414C14.9582 19.993 14.6099 20.0059 11.6734 20.0059C8.73266 20.0059 8.38441 19.993 7.22787 19.9414C6.15302 19.8941 5.5726 19.7136 5.18566 19.5632C4.67403 19.3655 4.30428 19.1248 3.92163 18.7423C3.53469 18.3555 3.29822 17.9902 3.10045 17.4788C2.94997 17.092 2.7694 16.5075 2.7221 15.4374C2.67051 14.277 2.65761 13.9289 2.65761 10.9936C2.65761 8.05392 2.67051 7.7058 2.7221 6.54972C2.7694 5.47529 2.94997 4.8951 3.10045 4.5083C3.29822 3.99687 3.53899 3.62727 3.92163 3.24477C4.30858 2.85798 4.67403 2.62161 5.18566 2.42391C5.5726 2.27349 6.15732 2.09299 7.22787 2.04571C8.38441 1.99414 8.73266 1.98125 11.6734 1.98125ZM11.6734 0C8.68536 0 8.31132 0.0128931 7.13758 0.0644657C5.96815 0.116038 5.16416 0.305138 4.46766 0.575894C3.74106 0.859543 3.12625 1.23344 2.51573 1.84802C1.90092 2.45829 1.52687 3.07287 1.24311 3.79488C0.972249 4.49541 0.783076 5.29478 0.731483 6.46376C0.67989 7.64134 0.666992 8.01524 0.666992 11.0021C0.666992 13.9891 0.67989 14.363 0.731483 15.5362C0.783076 16.7052 0.972249 17.5089 1.24311 18.2051C1.52687 18.9314 1.90092 19.546 2.51573 20.1563C3.12625 20.7666 3.74106 21.1448 4.46336 21.4241C5.16416 21.6949 5.96385 21.884 7.13328 21.9355C8.30702 21.9871 8.68106 22 11.6691 22C14.6572 22 15.0313 21.9871 16.205 21.9355C17.3744 21.884 18.1784 21.6949 18.8749 21.4241C19.5972 21.1448 20.212 20.7666 20.8226 20.1563C21.4331 19.546 21.8114 18.9314 22.0909 18.2094C22.3617 17.5089 22.5509 16.7095 22.6025 15.5405C22.6541 14.3673 22.667 13.9934 22.667 11.0064C22.667 8.01954 22.6541 7.64563 22.6025 6.47236C22.5509 5.30338 22.3617 4.49971 22.0909 3.80348C21.82 3.07287 21.446 2.45829 20.8312 1.84802C20.2206 1.23774 19.6058 0.859543 18.8835 0.580191C18.1827 0.309435 17.383 0.120336 16.2136 0.0687634C15.0356 0.0128931 14.6615 0 11.6734 0Z" fill="white"/>
<path d="M11.6732 5.3501C8.55187 5.3501 6.01953 7.88145 6.01953 11.0016C6.01953 14.1217 8.55187 16.6531 11.6732 16.6531C14.7946 16.6531 17.3269 14.1217 17.3269 11.0016C17.3269 7.88145 14.7946 5.3501 11.6732 5.3501ZM11.6732 14.6675C9.64822 14.6675 8.00585 13.0258 8.00585 11.0016C8.00585 8.97737 9.64822 7.33564 11.6732 7.33564C13.6982 7.33564 15.3406 8.97737 15.3406 11.0016C15.3406 13.0258 13.6982 14.6675 11.6732 14.6675Z" fill="white"/>
<path d="M18.8713 5.12702C18.8713 5.85763 18.278 6.44642 17.5514 6.44642C16.8205 6.44642 16.2314 5.85333 16.2314 5.12702C16.2314 4.3964 16.8248 3.80762 17.5514 3.80762C18.278 3.80762 18.8713 4.4007 18.8713 5.12702Z" fill="white"/>
</svg>
