<svg width="26" height="22" viewBox="0 0 26 22" fill="none" xmlns="http://www.w3.org/2000/svg">
<path d="M25.744 4.74701C25.744 4.74701 25.4934 2.59039 24.7214 1.64343C23.7438 0.397112 22.651 0.391002 22.1497 0.317689C18.5604 -1.74792e-07 13.1714 0 13.1714 0H13.1613C13.1613 0 7.77233 -1.74792e-07 4.18301 0.317689C3.68171 0.391002 2.58887 0.397112 1.61133 1.64343C0.839323 2.59039 0.593685 4.74701 0.593685 4.74701C0.593685 4.74701 0.333008 7.28242 0.333008 9.81172V12.1822C0.333008 14.7115 0.588672 17.2469 0.588672 17.2469C0.588672 17.2469 0.839323 19.4035 1.60632 20.3505C2.58385 21.5968 3.86719 21.554 4.43867 21.6884C6.49401 21.9267 13.1663 22 13.1663 22C13.1663 22 18.5604 21.9878 22.1497 21.6762C22.651 21.6029 23.7438 21.5968 24.7214 20.3505C25.4934 19.4035 25.744 17.2469 25.744 17.2469C25.744 17.2469 25.9997 14.7176 25.9997 12.1822V9.81172C25.9997 7.28242 25.744 4.74701 25.744 4.74701ZM10.5145 15.0597V6.26826L17.4475 10.6793L10.5145 15.0597Z" fill="white"/>
</svg>
